<svg fill="none" height="90" viewBox="0 0 570 90" width="570" xmlns="http://www.w3.org/2000/svg"><g fill="#f00"><path d="m255.958 23.7453v.1792c3.137 2.4197 3.316 3.3159 3.316 9.8581v25.0035c0 5.9149 0 7.1695-2.868 9.5892v.1793h25.183v-.1793c-2.868-2.4197-2.868-3.6743-2.868-9.5892v-18.8198c0-5.646 1.613-8.0657 4.123-8.0657 2.33 0 3.495 1.7924 3.495 4.4809v22.4046c0 5.9149 0 7.1695-2.868 9.5892v.1793h25.183v-.1793c-2.779-2.4197-2.868-3.6743-2.868-9.5892v-21.4188c0-7.7072-3.495-14.5182-13.084-14.5182-6.811 0-12.099 3.9432-13.981 11.4712v-10.575z"/><path d="m228.838 24.7328c2.24 0 2.778 3.764 2.778 13.0843s-.538 13.0843-2.778 13.0843c-2.061 0-2.689-3.764-2.689-13.0843s.628-13.0843 2.689-13.0843zm25.72 46.2432c0-9.2307-6.631-13.9805-17.296-13.9805h-18.73c-2.151 0-3.226-1.0754-3.226-2.6886 0-1.6131 1.165-2.6885 3.136-3.4951 2.958.9858 6.363 1.5235 10.396 1.5235 13.263 0 20.702-5.8252 20.702-14.5182 0-5.1979-2.689-9.4099-7.618-11.9192 1.076-1.4339 2.42-2.3301 4.212-2.3301 3.047 0 4.571 2.2404 4.571 4.929 0 .8962-.179 1.7924-.538 2.5989l.09.1793c3.405-.717 7.169-2.9574 7.169-7.6176 0-4.0328-2.688-7.1695-7.707-7.1695-4.75 0-7.618 4.0328-8.962 8.8722-3.136-1.4339-7.169-2.1508-11.919-2.1508-13.174 0-20.612 5.9148-20.612 14.6078 0 5.5564 3.047 9.9477 8.782 12.3674-5.735 1.9716-10.306 6.6317-10.306 12.9946 0 6.0045 3.674 9.9477 8.872 11.3816-6.811.0896-9.947 2.9574-9.947 6.0941 0 6.7213 11.112 8.5137 21.419 8.5137 14.07 0 27.512-5.1082 27.512-18.1925zm-27.602 16.669c-6.811 0-12.816-1.9716-12.816-7.3487 0-3.5848 2.689-5.1083 6.005-5.1083h15.325c4.481 0 6.721 1.4339 6.721 4.7498 0 5.3771-7.349 7.7072-15.235 7.7072z"/><path d="m183.821 10.9316c0 5.6459 4.392 10.0372 10.307 10.0372 5.825 0 10.395-4.3913 10.395-10.0372 0-5.73562-4.57-10.037313-10.395-10.037313-5.915 0-10.307 4.301693-10.307 10.037313zm19.985 13.1739h-22.763v.1792c3.137 2.4197 3.316 3.3159 3.316 9.858v25.0036c0 5.9148 0 7.1695-2.868 9.5892v.1792h25.183v-.1792c-2.868-2.4197-2.868-3.6744-2.868-9.5892z"/><path d="m161.729 24.6431c5.736 0 12.009 5.2875 16.221 13.3532h.179v-14.8767c-1.613 1.3443-2.957 2.0613-5.018 2.0613-3.137 0-6.453-1.9717-11.74-1.9717-9.231 0-16.131 6.2733-16.131 14.9663 0 9.41 5.108 13.8909 15.772 17.7445 5.736 2.1508 8.514 3.4055 8.514 7.1695 0 3.4055-2.33 5.2875-6.094 5.2875-6.901 0-12.726-5.646-18.013-15.3248h-.179l.896 16.8483c1.254-.8066 2.419-1.7924 4.749-1.7924 3.227 0 7.08 1.7028 12.906 1.7028 11.112 0 18.192-6.6318 18.192-15.9521 0-9.2307-5.019-13.3532-15.594-17.2964-7.259-2.7782-9.947-3.764-9.947-7.5279 0-2.6886 2.151-4.3914 5.287-4.3914z"/><path d="m123.011 23.2094c-12.457 0-23.3013 8.9618-23.3013 23.3904 0 14.6974 10.3063 23.2112 22.7633 23.2112 10.933 0 18.461-6.6318 20.702-16.4898l-.628-.2689c-2.509 5.5564-6.631 7.3487-11.202 7.3487-6.99 0-12.098-5.2875-12.098-16.0417h24.465c0-11.6504-6.721-21.1499-20.701-21.1499zm-3.764 19.3575c.089-10.5749.627-17.9237 3.764-17.9237 2.688 0 3.047 7.3488 3.047 17.9237z"/><path d="m74.004 61.9245c-3.2262 0-4.5705-5.0186-4.5705-14.9663 0-13.0843.9858-18.8198 4.3017-18.8198 2.8678 0 4.8394 4.5705 4.8394 11.8296v11.8296c0 5.9149-1.7028 10.1269-4.5706 10.1269zm4.5706-30.6495c-1.7028-5.4667-5.4668-8.0657-11.5608-8.0657-10.3061 0-17.9237 9.3204-17.9237 23.8386 0 13.7116 6.9902 22.7631 16.4002 22.7631 6.9006 0 11.3815-4.3913 13.0843-11.0231v10.1269h22.2254v-.1793c-2.7782-2.4197-2.8678-3.6743-2.8678-9.5891v-57.35587h-23.2112v.17923c3.2262 2.15084 3.8536 3.31589 3.8536 9.85804z"/><path d="m25.1828 58.3397v-41.583c0-5.9148.6273-7.61753 3.9432-10.3957v-.17924h-29.126v.17924c3.31588 2.77817 3.94321 4.4809 3.94321 10.3957v41.583c0 5.9148-.62733 7.528-3.94321 10.3958v.1792h29.126v-.1792c-3.3159-2.8678-3.9432-4.481-3.9432-10.3958z"/><path d="m559.306 67.0745c-5.914 0-10.306-4.3913-10.306-10.0372 0-5.7356 4.392-10.0373 10.306-10.0373 5.826 0 10.396 4.3017 10.396 10.0373 0 5.6459-4.57 10.0372-10.396 10.0372z"/></g></svg>