<svg height="1024" viewBox="0 0 1024 1024" width="1024" xmlns="http://www.w3.org/2000/svg"><g fill="none" fill-rule="evenodd"><path d="m0 0h1024v1024h-1024z" fill="#f7b006"/><path d="m520.928156 130.377364.087506-.016056c.326608-.044917.663036-.001206.967274.124609 10.231605 1.124767 20.260837 4.194668 29.517103 9.161683l1.402635.770552 96.021128 53.987363c1.6123.906506 3.192911 1.867752 4.739079 2.882018l1.534585 1.031877 38.566919 26.576263c14.464917 9.967699 25.283987 24.3479 30.85207 40.962328l.5224 1.61475 30.361334 97.31808c2.230936 7.150885 3.457016 14.573037 3.645871 22.054016l.025765 2.041567-.000825 160.132586 16.492773 58.59649c.513875 1.825786.435586 3.760849-.213402 5.530532l-.27008.655343-21.146564 46.068687.001633 38.02374c0 3.95557-2.580961 7.420612-6.315545 8.588242l-.59905.165008-28.742765 6.869958-13.505079 44.828716c-1.873698 6.219069-4.489159 12.189406-7.789293 17.782782l-.500148.836163-21.855931 36.045442c-3.515776 5.798319-7.745754 11.131906-12.590026 15.876311l-.696207.673751-40.169573 38.411713c-13.172287 12.595856-30.204894 20.385994-48.343768 22.125516l-.756419.068976-40.838848 3.531626c-6.250101.540491-12.540709.354939-18.745724-.552128l-1.033355-.157858-62.921298-10.026822c-13.337937-2.125466-25.929026-7.54278-36.633315-15.755057l-.62748-.486295-58.8955-46.106932c-11.7748-9.21802-20.763145-21.505416-25.977683-35.499113l-.270959-.738079-16.681144-46.129654c-1.634517-4.520055-2.862778-9.175761-3.670604-13.911949l-.166665-1.016109-1.429981-9.069-17.552752.000401c-3.460163 0-6.593883-1.975425-8.096586-5.046776l-.262325-.588507-12.328923-30.541955c-.345402-.855651-.556506-1.757954-.627132-2.67509l-.026532-.690135-.002085-13.061986-15.009681-50.469484c-.260212-.874974-.385261-1.783091-.372035-2.693109l.035895-.682382 6.740156-74.223977.000035-145.023718c0-15.08021 4.214969-29.8491 12.153583-42.650222l.932491-1.468225 19.007433-29.229499c2.265712-3.484196 2.620156-7.874214.942698-11.675924-3.977017-9.013322-3.335185-19.367874 1.670716-27.802733l.574157-.92914 50.950468-79.24593c8.721115-13.564406 22.388516-23.175019 38.071174-26.820052l1.476063-.324183 16.862173-3.488794c2.290481-.473903 4.552355-1.074562 6.775184-1.799052l1.659638-.56654 77.956246-27.825936c11.374255-4.059961 23.367337-5.485199 35.119097-4.348688zm47.619544 698.975839-55.9677-.000203 8.73754 46.573877c1.023855.048961 2.048831.073 3.074014.072083zm4.015022 1.002848-43.004722 45.424949.219673-.016906 40.838849-3.531627c6.732878-.58224 13.277193-2.235801 19.401277-4.855963l-15.701799-36.737504-.979501-.057634c-.281168-.016517-.543481-.096551-.773777-.225315zm-63.479722-.096051-63.738505 33.63414c1.679123.441686 3.379157.814834 5.096036 1.11767l1.032117.17325 62.921297 10.026822c1.064058.169563 2.131627.311768 3.201652.426579zm69.255.615 14.954777 34.988218c5.40568-2.68783 10.431858-6.154021 14.906093-10.320626l.606686-.572507 21.975444-21.015085zm-79.745915-56.536497-57.573085 87.764497 67.369-35.548zm-4.951085.980497-95.44 58.217 24.291029 19.016898c4.539927 3.554127 9.527596 6.455054 14.816202 8.63879zm-70.864-13.542-3.116994.389717c-.451947.056418-.885696-.059452-1.23512-.296246l-23.541886 65.922529.09642.768096c.09177.733181-.271706 1.418405-.869959 1.772589l1.062539.830315 98.031-59.796zm171.846 38.378-18.195 26.252.329.769 52.309 3.072zm6.577-42.262-38.477 9.606 71.16 62.174zm-217.213 11.873-31.809853 25.069398c3.090238 4.085728 6.681054 7.797776 10.704824 11.042786l.714558.567782 27.416471 21.463034.186-.522zm273.261-18.893-17.162747 71.132655c-.169834.703868-.732351 1.210549-1.399333 1.343991l.42908 2.637354 9.860129-9.428629c3.772744-3.607645 7.081384-7.668409 9.850656-12.088536l.48308-.783734 21.855932-36.045441c1.385307-2.284689 2.622347-4.652745 3.704557-7.089423zm-119.919 17.492-22.17901 57.388h57.07801l-24.526-57.385-10.309958.000466zm-4.246.987-31.397 1.932 10.017 53.394zm58.39-41.526 12.203334 26.799582c.164346.199729.287996.43812.354952.705586l.028714.139832 31.011 68.113-13.913-85.357zm-33.231 40.542h-6.62l23.134 54.127 17.137-24.726zm-135.584-29.078-35.364 27.87 6.595 52.694zm202.373.294 12.593 77.253 16.205-67.162zm-244.141 5.442-29.551 44.532.156 1.23 31.969-25.196zm-42.035-25.553-7.834314 23.475744c-.082096.245959-.212206.462441-.376454.642517l12.536686 34.670222c1.173601 3.245449 2.607168 6.375534 4.280596 9.362501zm33.92-11.721-31.258 3.746-.026.08 8.824 69.872zm3.542.743-20.799 68.249 24.686-37.2zm101.674143 46.259868c-.104542.057925-.215829.105912-.33275.142531l-.3179.068912-40.642493 5.072689 58.106 7.913-14.584-12.401zm49.883857-1.931868-42.173 2.66 14.451063 12.288733.403725-.025055c-.056635-.613446.206986-1.226839.712423-1.60517l.276811-.170646zm11.683-1.105-.541379.265633-.680124.180341-1.235497.077026-30.279 15.119 27.658163-1.701586zm8.119 7.419 2.407 5.631h4.038zm-5.575803-3.872372-3.455021 9.492995c-.000308.003665-.000628.00733-.000959.010996l7.517783-.000619zm41.058803-24.903628-39.511 19.353.764 1.788 14.271 12.469zm5.101-.883-24.865 34.143 36.286-9.06zm-164.625089 3.796305-.272006.075654-39.405905 7.155041 2.813 22.481 36.718244-28.93734-.001244-.04666.002.046-.002-.071.002594-.067327c.001339-.034545.003845-.068604.0073-.102583l.005196-.039786c.020191-.168791.064562-.335001.132821-.492999zm3.787089 3.397695-7.528 21.079 2.903.395 47.942-5.985zm234.655-5.816-3.981 16.498 26.246 9.197zm42.226-33.099-40.469 29.626 23.395454 26.99801c.035316-.109134.070337-.218372.105061-.327712l.276625-.89404zm-163.586 49.378-64.535 3.15 5.205879 1.861852 54.764121-3.456852 1.443327-.720152c.491715-.245529 1.042082-.245549 1.511342-.046585zm12.688-6.214-92.22 4.001 7.319785 2.617488c.235457-.241787.538972-.41833.881731-.497897l.3222-.044765 78.409412-3.827633c.197062-.00962.388277.01274.5686.06251zm60.82-65.289-.192575.405274c.346906.210642.621246.536662.762628.934637l.080724.314706 9.494223 58.250383 30.307 10.619 4.499-18.647zm-46.802 58.424-119.197 6.232 4.461775 1.595357c.14957-.084481.312682-.148323.485626-.187485l.322439-.04302 105.84254-4.592632c.444002-.019266.857455.123567 1.182991.375977zm-229.865-22.084-15.105 1.81 1.061232 6.739117c.575147 3.651849 1.470923 7.245467 2.676657 10.739344l.307885.871368 2.251226 6.228171zm242.776 15.761-145.98 7.595 5.723772 2.04552c.179582-.12315.383044-.214839.602803-.266655l.322043-.04588 133.693733-6.990115c.235923-.012336.463621.02121.674408.092823zm-173.857-21.268-19.836 29.893 35.076-6.369zm-2.712-2.428-24.013 2.878 3.507 28.023zm208.019-23.306-20.528121 42.89172c.147938.128524.269109.277247.363284.438803l28.877837 10.118477zm-169.927 46.645-8.418 4.395 8.418-.438zm7.21-3.764-3.605 1.882v5.651l3.605-.188zm7.21-3.764-3.605 1.882v9.04l3.606-.188-.000143-.015664zm7.21-3.764-4.312285 2.251231c.348956.266644.597494.65775.679131 1.106926l.029041.32357-.000887 10.629273 3.605-.188zm7.228958-3.773914-3.637958 1.898914.014948.156423-.000948 15.654577 3.605-.188.000978-17.266678c0-.086645.00613-.17186.01798-.255236zm-19.246226-71.265495-22.113732 88.798409 48.734523-25.444363c.796934-.416091 1.61128-.784508 2.439029-1.105295zm26.491705 67.483869-4.652068 2.427748c.496803.249554.862142.721817.964599 1.285543l.029041.323571-.000009 17.079678 3.605-.188.000039-20.491881c0-.150588.018516-.296856.053398-.436659zm-31.484437-62.34246-37.093683 55.90379-.012428.061588c-.032319.14681-.082773.287635-.14916.419675-.010528.020758-.021719.04197-.033378.063038-.011489.020938-.023154.041073-.035199.060967-.003702.00597-.007343.011913-.011023.017844l-.072129.105098-.050995.069594c-.015074.018581-.030232.036805-.045746.054727-.01643.019399-.033279.038084-.050459.056352-.021392.022271-.043086.044166-.065342.065508-.013493.01339-.027133.026059-.040941.038489-.02483.021945-.050172.043544-.076127.064451-.013725.011355-.027821.022344-.042059.033105l-.029865.021906 17.049534 26.309868zm39.802331 59.296171-.05163.007911c-2.01188.296703-3.990272.895614-5.865482 1.797493.576723.222564 1.008899.732728 1.12181 1.353973l.029041.323571-.00007 20.303881 3.633-.189-.0279-.313765v-21.601218c0-.768598.482347-1.424688 1.161231-1.682846zm.849792-.104601c.79021.090347 1.424533.691194 1.564967 1.463877l.029041.32357v21.601218l-.005131.127765 3.61-.188.000161-21.540983c0-.596501.290525-1.125237.737973-1.452786l.083517-.056993c-1.984098-.390133-4.01371-.482937-6.020528-.277668zm8.604512.964333.037604.076319c.060879.133165.105978.275035.132912.423225l.029041.32357-.000192 21.352983 4.197845-.217516c-.288008-.260605-.49127-.612912-.563582-1.01078l-.029041-.323571v-18.001014c0-.289249.068313-.562563.189705-.804731l-.299946-.155256-.298425-.161181-.944561-.493276c-.799405-.391494-1.618353-.727771-2.45136-1.008772zm7.409625 3.239638-.000008 17.384592c0 .462633-.174756.884504-.461941 1.203368l4.354775-.227188c-.126191-.194881-.215698-.415666-.258762-.652609l-.029041-.323571v-14.400811c0-.994169.807013-1.800102 1.802515-1.800102.88489 0 1.620852.636787 1.773474 1.476531l.029041.323571v14.400811c0 .292771-.069987.569218-.194164.813564l3.905617-.202747c-.033396-.092469-.059426-.188453-.077381-.287246l-.029041-.323571-.000267-16.542424c-3.603659.575404-7.312939.294906-10.814817-.842168zm18.02474-1.580541-.487575.258786c-1.013574.507883-2.055378.936952-3.116659 1.287189l-.000392 17.419158c0 .148415-.017985.292635-.051898.430605l3.677524-.191738-.020595-.238867zm7.211274-2.667646c-1.222198.229475-2.428478.560165-3.605934.991333l.000095 20.641446-.002435.051867 3.607-.188.000465-21.465084zm3.555114-.38047c.008511.02917.014656.058688.020067.088461l.029041.323571-.000496 21.278084 3.605-.188.000526-21.090084.005976-.147637.008376-.067934c-1.218003-.165052-2.444957-.230304-3.66849-.196461zm7.25959.984454-.000978 20.330662 3.605-.188.000587-17.114881c0-.553237.249909-1.048182.64314-1.37839l-2.204274-.914349c-.672401-.278921-1.354364-.523889-2.043475-.735042zm7.195022 2.871662.014618.156119-.000618 16.927881 3.605-.188.000648-13.139678c0-.81361.540497-1.50115 1.282471-1.724051zm7.011765 2.906872c.087006.162043.149895.338931.183873.525879l.029041.323571-.000679 12.952678 11.692364-.6073c-.436724-.26163-.753322-.702731-.847553-1.221199l-.029041-.323571-.00077-7.07593-3.605-1.495.000739 8.57093c0 .994169-.807013 1.800102-1.802515 1.800102-.88489 0-1.620852-.636787-1.773474-1.476531l-.029041-.323571-.000709-10.06593zm14.632235 6.069128.0008 5.58093c0 .589205-.28346 1.112292-.721623 1.440676l4.777891-.249299c-.212918-.240666-.362372-.538644-.422196-.867806l-.029041-.323571v-3.600203c0-.159284.020716-.313737.059604-.460817zm7.21 2.99.000861 2.59093c0 .389455-.123844.750023-.334348 1.044571l8.082487-.421501zm43.265714-46.665672-.596714.276672 42.303 48.82 8.514-35.285-48.859432-12.198998c-.773983-.193237-1.304815-.859312-1.360854-1.612674zm53.717286 14.684672-8.201 33.986 36.704-26.87zm-111.585131-43.180752-21.023869 56.696534c.812039.226615 1.616362.493268 2.410074.800123l.59325.237683 42.429676 17.599412zm16.508131-12.770248 13.041 84.656 21.441461-44.795384.020539-.040616zm-3.928-1.821-10.396 9.638 22.649 69.904zm-240.872 36.954-8.412 42.003 13.513-1.62zm2.951-5.406 5.729 45.36 30.863-3.699zm168.469592-2.643615-6.936241 42.986453c1.161718.388824 2.300394.868895 3.405307 1.440096l.549593.293194.931755.485924c5.598341 2.732683 12.182563 2.638253 17.710698-.278894l.375257-.20327.921516-.488535c1.852332-.935385 3.792208-1.639461 5.777438-2.109821l-5.987749-42.104103c-.233354.193649-.516427.329604-.827272.385949l-.324005.029002h-14.420121c-.449455 0-.860488-.164281-1.176176-.435995zm-193.096592-16.034385 6.799185 38.361464.256407 1.532173 3.423408 21.742363 9.633-48.099-.235771-.267336c-.313928-.35741-.460688-.803996-.446528-1.244427zm66.329 41.048 2.303 18.403 22.983-2.754zm-37.811-23.4 35.425527 40.332128c.184677-.317768.459567-.565159.780439-.718614l-2.333966-18.650514zm157.199-13.212-.253016.053406-35.371984 4.062594 22.706587 48.637574h10.00396l7.740453-47.966574zm60.173-2.083-29.787995 3.305761c-.115201.012783-.22907.014425-.34053.005788l-3.252475 3.524451 6.697144 47.111324h6.676516zm-111.714-4.119-66.144 39.633 28.245 17.479zm-150.778 11.386-10.663 7.099-.001182 12.345789 9.401919 23.289713 8.633263.000498-1.616512-10.260803zm418.149-22.853-28.412744 13.175346c.111995.100303.212408.215622.297846.344599l.154324.285984 20.965574 48.856071.315851.078559c.676129-2.705389 1.171856-5.453359 1.483611-8.225822l.098831-.942816 5.199707-53.495921zm17.55 6.896-3.115 32.047v23.426l9.352575-2.235805.001633-32.887376c0-1.035567.178939-2.061387.527051-3.032776l.292652-.717638.745089-1.625405zm-47.779 10.766-8.921 36.972 27.763 6.931zm-3.184-2.169-56.88 26.373 47.646 11.895zm-235.349-7.391h-72.237l5.04 40.263zm-75.632 1.903-29.277 16.244 33.939 21.003zm314.936-10.904h-52.098l-14.860961 41.225173c-.078469.217678-.1946.410981-.338419.575222l.04475.052069c.048002-.042227.098579-.082151.151636-.119518l.281646-.162564 63.943348-29.649382zm-55.93 0h-47.589l33.608 38.784zm-107.12 24.53h-15.034l-.421081 2.608301c.116008-.047949.238118-.084152.364844-.107122l.324005-.029002h14.420121c.255931 0 .499403.053267.719907.149305zm-227.166-9.382-11.145 7.377 1.324 4.453 10.66-7.097zm71.288-6.147h-31.542l1.956 15.485.901312.558546c.067882-.079313.143296-.153362.225913-.220993l.269127-.182492zm-35.175 0h-18.895l.066.374 20.477 12.672zm194.526 9h-22.251l2.952874 2.928534h16.597561zm-232.168-11.483-12.089 7.691 1.4 4.707 11.533-7.633zm187.090302-6.08082-19.851302 16.86982.691 1.481.099-.035 21.8-15.6zm252.973698-6.13018-.672 6.916 9.068 17.399 1.83-3.987zm-241.52637 17.482709c-.065097.050004-.13413.095903-.206849.13718l-.296137.134448-15.934644 5.579663 20.019-2.3zm43.613122.702976-3.047752 3.304315 27.844-3.09.039-.106-24.216989.000365c-.2172 0-.425428-.038365-.618259-.10868zm-49.727752-6.766685-12.273 8.783 15.615-5.469zm24.722441-82.257558-27.800512 41.896299c.009018.036381.016928.073199.023692.110416l.029041.323571v30.618424c0 .347806-.100064.678252-.277074.958983l17.229753 17.087737c.048621-.013146.098058-.024311.148217-.033403l.324005-.029002h28.026999c.19474 0 .382268.03084.557952.087898l15.863486-17.198365v-34.44zm-35.551441 76.912558-19.123 6.569 3.295547 6.879934zm-182.76-.445-12.874 7.714.883 2.969 12.477-7.937zm444.257-17.199h-1.902l-.471 4.849 11.497 22.856 2.061-4.491zm-28.512 17.263h-19.127l-2.409 9.985zm-165.606272 5.094742-3.603728 3.906258h13.275l-9.334365-3.72879c-.120646-.048193-.233203-.107945-.336907-.177468zm29.862772-6.651923-20.6725 1.086181 11.446449 8.493807 9.515346-8.8193c-.150227-.223192-.251731-.481819-.289295-.760688zm-25.538814 1.961959-1.740686 1.887222 9.281 3.707zm-215.531686-19.194778 3.055 24.19h35.008zm76.31-24.011-34.344 48.017.023.184h76.151zm-79.862 24.655-17.003 18.478.898 5.068h19.079zm-36.533 11.573-13.538 8.112.758 2.548 13.261-7.947zm174.253-41.907-54.928 3.559 41.939 48.327zm13.859 19.196-20.985 31.623 20.985491-7.208519zm265.783 12.021h-4.484l9.137 18.962 2.387-5.202zm-383.067-38.154-30.402041 33.038505c.288555-.0302.585873.008698.865496.122564l.288941.149249 36.304604 23.071682zm3.443-1.518 7.12 56.881 32.575-45.545-.020226-.024041-.008901-.009828c-.003252-.003812-.006491-.007641-.009715-.011485l-.009158-.013646-.074111-.093676c-.036461-.050564-.069943-.102504-.100463-.155593l-.001842-.003906-.218584-.383825zm-75.597 42.876-14.022309 8.402823c-.093313.055913-.189655.10241-.287919.13977l1.038228 3.492407 13.926-8.345zm194.142-63.439-14.464653 26.696108c.038063.166338.052718.339662.041191.515352l-.050409.320943-11.614129 46.391597 26.113-39.35-.02493-.27778zm100.855 31.359-6.472 38.779.194343.422786c.367331.800375.09769 1.729905-.59738 2.219811.169509.204125.293421.448948.357188.71831l.013849.099093.26.3h48.84zm104.476 28.363-45.424 14.176h42.211l3.389-14.046zm3.324 2.447-2.83 11.729h18.769zm-144.275-17.659-.000311 29.083335 24.104311-1.266335zm-242.650687 3.196479.031219.440592c.132325 1.707301.334404 3.40994.606088 5.103642l.171361 1.015114 3.385019 19.102173 17.076-18.558-21.007548-6.992888c-.09158-.030486-.179079-.067601-.262139-.110633zm344.263687-16.930479-15.211 42.197 50.949-15.9zm-3.159-1.867-57.667 1.665 41.961 41.906zm59.842-19.904 8.726 63.384 3.80363-39.12217c.367674-3.782064.391921-7.588943.072793-11.374099l-.031423-.332731zm-2.75 6.456-9.888 40.979.022036.082306c.129758.584462-.04327 1.176542-.425505 1.597826l-.062531.251868 18.095 13.316zm49.277 44.774h-4.075l4.906 9.588 1.941-4.23zm-464.667269-4.342227-15.149731 8.824227 1.109 3.728 14.69-8.801-.396291-2.240807c-.089117-.502822-.173444-1.006318-.252978-1.51042zm249.539269-64.940773.000526 36.143814-.001526.020186 9.210149 10.626437c.507305.216064.895168.657745 1.037198 1.198823l25.043653 28.90174zm5.468 3.272 32.16 70.073 5.657417-33.896917c.079722-.477694.340982-.87989.701503-1.147898l-.036721-.230184-.024199-.342001zm214.892 66.011h-1.174l.622 1.202zm-470.772318-12.629837-16.555682 9.448837 1.223 4.111 15.69074-9.140148c-.159763-1.470145-.279136-2.943929-.358058-4.419689zm461.349318-29.251163-11.836 16.323-.02957.32928-2.10343 21.62872h24.744zm-46.514-13.262-51.228 20.463-.954.987 39.681 29.2.542-.169 12.04-49.897zm-427.167-1.418-4.489 49.384 16.7056-9.533272c-.007661-2.585587.108636-5.172534.349204-7.751939l.0933-.940878 1.654896-15.751911-.574202.495267zm84.541 15.411-.245481.022864-33.359519-.000864 4.054 32.093zm-36.827 3.274-16.483494 21.949796c.084013.000014.168663.005941.253395.018056l.316561.074808 19.517538 6.49734zm-2.064-3.252h-13.215l-1.849156 17.603386c-.096562.91904-.172802 1.839491-.228745 2.760685zm166.624-64.025v74.097l20.784-31.319zm-26.805 67.684-45.52 2.197-2.092 3.831 50.184-3.253zm-55.476 2.244 1.775 3.113 2.046.555 1.992-3.648zm236.892-1.875-48.23894 1.260355c-.127585.003332-.249669-.019982-.36091-.064874l-3.60015 2.613519 53.819-1.553zm-276.878-9.409-.958266 2.194109c.242385.199944.433055.463112.544699.768287l37.267567 10.104604-1.142-2.002zm252.278-15.035-32.511 22.728.312302 4.457108c.006925-.007493.013923-.014937.020994-.02233l.244953-.213771 36.329751-26.387007zm-137.368-2.332-16.356 24.442 2.988 3.225 14.934-27.555zm64.135-6.218 37.255 33.376-.281-3.998-31.26263-27.752508c-.192212-.170627-.29406-.40496-.302001-.642863zm-142.374 29.056 2.305 4.041 7.801.002 1.75-3.204zm53.713-1.912-37.712 2.68-1.719 3.148 42.91-2.073zm193.844-33.625-4.491723 3.210468c.121956.127006.206593.289253.237723.468554l.011627.207413-1.802515 30.601725c-.009326.158324-.059093.304675-.138685.429628l3.155573 4.399212zm-115.096-73.513-22.033 87.382 22.033 25.427-.000673-37.476594c-.022157-.16421-.022678-.330928.000926-.495032l-.000267-47.71103c-.015231-.130952-.015847-.264276-.000314-.397694zm-166.524 97.614-1.883 4.307 33.709 10.482-2.231-3.912zm270.643 10.319-.105378.015046-37.372486.90005c-.046706.001125-.092667-.001319-.137622-.007083l-4.892514 3.550987 44.867-1.171zm41.214-32.245-29.021 28.982-.507 6.581 33.718724-34.882772zm-204.027 10.205-16.865 19.386 3.72 4.014 15.547-23.229zm134.19 1.674-25.342 16.872.333 4.739 30.001-20.973zm76.658-8.733-29.248 30.257 42.533-16.99zm-287.83 24.579 2.162 3.791 13.853.957 2.065-3.78zm52.035-1.556-29.757 2.355-2.041 3.737 35.121-2.506zm183.896.691h-25.091l-6.114 4.441 33.807-.814zm-82.054-21.049 28.505 25.303-.363-5.165-20.425-18.737zm90.82-3.646-5.42 3.872-1.03 17.868 4.777 6.658zm-273.294 14.614-1.529 3.496 27.515 10.146-1.896-3.325-19.510334-8.355391c-.170614.03576-.353405.022566-.526813-.048576-.181847-.074604-.326177-.201776-.422603-.356682zm344.149-30.341-7.641 31.669 11.985 11.969zm-395.35-10.737 6.817 53.971h33.253zm-3.281 2.794-1.302269 4.079305c-1.214004 3.799471-2.063804 7.704813-2.538345 11.663376l-.102843.914435-3.627543 34.519884h14.035zm57.293 17.145-12.55085 29.769172-.02815.055828 2.519 3.393 3.322488-7.597689c-.292527-.235661-.416712-.639734-.279708-1.011513.143257-.388748.52688-.61951.921101-.586282l.053119.011484 1.577-3.607-.061763-.030322c-.386499-.225955-.553049-.709283-.371962-1.130989.163481-.380707.558699-.591053.950631-.537217l.201094.055528 7.447-17.029zm96.765 14.137-15.065 15.277 2.97 3.205 15.85-18.214zm-74.152 12.384 2.143 3.757 20.062 1.032 1.982-3.63zm205.272-11.441-16.752 11.153.338 4.812 22.762-15.154zm-173.673 6.548-5.121 9.376 5.121-.407zm243.23437-18.785573-.009686.017618-.145953.192453-18.626731 18.736502-.678 8.796 26.616-26.581zm-237.82637 8.884573-3.605 6.6v12.127l3.965526-.314264c-.165929-.124598-.287385-.305083-.336337-.513461l-.023803-.206374zm1.802 1.102.000901 16.590901c0 .243189-.096578.463852-.253521.625822l3.914614-.312631c-.012879-.034649-.023682-.070305-.03226-.106817l-.023802-.206374v-11.588153c0-.294973.142087-.556804.361639-.720957zm5.408 5.837.000447 10.753901c0 .060338-.005945.119289-.017283.176301l3.621836-.289202v-6.75zm178.76667 6.039113-6.49067 4.713887h21.319l-3.244-4.522-.185197.022648h-10.815092c-.222811 0-.426738-.080746-.584041-.214535zm-173.35967-.203113v4.662l4.023-.32zm-56.299-2.412-1.256 4.625 5.16 2.222zm-20.054-27.021-12.61334 28.425853c-.065046.146588-.164501.267237-.284671.356672l3.190011 4.296475 12.194-28.922-1.004158-.47658c-1.058821-.50247-1.342009-1.839757-.655731-2.723886l.211349-.228922.31254-.287612zm92.517261 18.47188c-.01606.041961-.035377.082963-.057953.122618l-.146651.191922-10.815091 10.800609-.050566.042971 3.143 3.392 13.956-14.121zm102.299739-1.36588 16.92 15.521-.371-5.281-8.57197-8.55958c-.078583-.078477-.13962-.167842-.183113-.263231zm-178.608 3.172-2.98929 8.957218-.00371.007782 3.909 1.683 1.579961-5.81132c.025395-.093455.06463-.179458.114902-.256404zm251.088-3.605-7.275 5.197 6.456 8.997zm-243.998 8.763 2.374 4.163 26.203 1.256 2.071-3.793zm199.627-6.584-8.161 5.435.338 4.81 14.171-9.434zm-210.614-5.407-5.385 13.09 4.628 1.993 3.455-10.352zm70.214 4.314-6.274 6.265 3.973 4.287 10.016-10.002zm174.711 6.411-5.342 3.88h8.126zm-264.341-26.487-8.293 22.081.712949 6.400163c.008416.07564.012009.150705.011026.224889l.620025.836948 12.331-27.788zm16.311 10.317-7.182 16.424 3.247 1.398 5.908-14.362zm10.453 11.055 2.578 4.521 32.666 1.734 2.38999-4.372226c-.016432.003952-.033032.007451-.049784.010486l-.207595.013216zm350.13-33.925-3.103 5.615.043459.226454 3.361541 33.974546 3.288-4.536zm-164.164 33.939 5.547 5.54-.327002-4.670068c-.066912.007608-.134696.011491-.203092.01147l-.323973-.029348zm86.679-12.798-8.612 8.601-.699 9.078 16.426-16.524zm49.677-11.519-21.131625 15.07474c-.130697.093229-.269611.16654-.413119.220535l13.876639 13.856518c.142471-.059942.29507-.102427.455521-.124457.071584-.009828.142763-.015315.21327-.016663zm-272.39 22.084 5.435 5.865 5.119-5.112zm144.713.915.314 4.469 5.581-3.716zm-259.521-32.501 26.292 35.415-2.948062-26.505087c-.04886-.43915.064826-.858926.293087-1.199441zm59.6 24.553 4.459761 7.820348c.134246-.185475.337134-.31696.569366-.359023l.207595-.013216 37.507807 1.912608c.377034.019225.688086.267201.805277.602474l2.557194-4.685191-.895005.064979c-.2433.069883-.498496.087665-.74791.053262l-28.330892 2.002251c-.206636.014615-.413455-.0065-.611532-.061663l-.289444-.108071zm244.443-22.321-10.348 31.002 8.556499 1.092569 23.957501-17.117569c.045899-.182038.11661-.348309.208458-.499033zm-334.417 20.245-5.867 5.858 4.682 5.418zm318.957 9.087-.903.902.461.059.56298-.373899c.07828-.052117.161754-.09039.247528-.115398zm-3.154-4.05-3.446301 3.44337c.00745.046593.011169.093494.011243.140259l.532058.710371.676339.086157.01214-.017726.20857-.249307 2.929951-2.926124zm-9.939.926-.33528.33492c-.445345.443092-1.064573.605532-1.637414.48773l.319694 1.43635 3.651756.466688c-.000786-.021594-.001185-.043199-.001197-.064804zm-115.166 1.57-1.954.92 1.705.172.249-.459zm89.725-5.254 2.126 5.645 3.631.659-.081-1.151zm-83.998975-38.460554c-.069445.545664-.386692 1.054502-.855291 1.348849l21.050266 43.326705 10.872-43.124zm-5.726025 38.364554-8.112 5.026.000751.595659-.002751.027341 2.681.27 5.433-2.559zm-128.247-14.196-3.814 10.067 1.116 10.028 7.019-18.686zm231.396-9.747-22.481783 10.949892 5.782864 5.248609c.158993.061618.300112.167863.403245.309631l.060674.113868 9.956959 9.039833c.029271-.003484.058776-.006277.0885-.008361.882717-.061898 1.661534.521845 1.872679 1.348851l.051664.320744.012198.177933.787752.715465 10.028248 1.279535zm-25.763 12.839 6.359257 14.947116c.061022.143425.081923.293824.067747.438718l5.970996 1.083166-2.986-7.926zm-87.3-11.727-3.605 3.011v24.924l1.636.165 1.969-1.224zm-5.408 4.517-3.605 3.011v19.862l3.605.363zm-5.407 4.516-3.61 3.015.005114.0401-.000114 14.7569 3.605.363zm96.431 3.34-4.406 2.124 5.031 11.256 5.492.997zm-101.839 1.177-1.671 1.396-1.934 3.569v7.784l3.605.364zm-67.33-13.887-16.053 14.697-.07.167 25.218923 11.969031 2.023077-.142031zm214.639 20.972-3.427 3.41 1.673 2.228 3.456-3.452zm-152.716 1.205-2.198 4.056 2.198.222zm-43.762-.598-3.855 3.39.607 1.457 2.332-.163 2.928-2.708zm70.799-25.758-3.605 3.011v27.262l3.690162-2.293206c-.025888-.055296-.046311-.113655-.060577-.174382l-.023803-.206374zm-28.488 21.466-12.794 7.731 8.161.823zm102.667-1.67-5.053 2.436 2.880242 5.752068c.112064.223826.121977.471991.047387.691625l6.632371 1.203307zm99.674 2.638-.548 7.117 6.206-6.199zm-235.533 3.633-1.887 1.746.84258.82719c.195213.191784.337435.417053.426517.657624l2.094903-1.851814zm8.761-.249-1.926 1.701 1.167994 1.089132c.17132.159859.304437.345255.398964.544782l.990042-.068914 1.321-1.333zm187.909-.989-2.809 2.806.924 1.187 2.77-2.767zm-18.381 2.219.373 1.675.507-.504zm-49.106-4.033-7.375 3.555.015375.032243c.078898-.010641.159088-.016098.240137-.016074l.323973.029348 9.457515 1.716483zm-252.049167-10.294601-12.520833 12.503601 2.648 3.065 8.387401-8.375687c.129612-.129438.274051-.235043.427858-.316815.253239-2.306803.606525-4.601259 1.057574-6.876099zm146.012167-13.456399-15.147295 1.71249c2.142919 1.246975 4.693562 2.653661 7.649783 4.218353.879599.465561 1.214737 1.555074.748551 2.433496-.162527.306245-.400993.546403-.679967.709604l-.000508 16.294429c.126983.074504.246815.165874.356257.274125.628709.621867.702895 1.591505.219608 2.295395l-.207369.250304-.35606.358804 19.077265-11.531-11.024183-16.643738zm43.041-3.028-2.834323 2.368268c.048459.079592.084903.167285.106817.260568l.023803.206374-.000297 27.84079 2.704-1.68zm117.187 23.799-3.323 3.358 1.697 2.26 3.381-3.365zm-196.393 1.891-1.911165 1.73839c-.078732.071552-.162082.134839-.24898.189912l.742145 1.782698 2.741-2.411zm8.424-.146-1.811 1.593 1.946 1.912 1.818-1.682zm9.256-.024-2.01 1.859 1.538 1.435 2.007-1.773zm188.252-2.131-2.981 2.966 1.699 2.18 2.904-2.9zm56.63-38.997 20.39 43.635 22.121-15.78zm-237.432 42.231-.643.568.643.637zm251.573-3.456-1.523 3.706 3.522.572zm-143.07-40.348-.352.142v44.107l1.93-.94-.017822-.165266v-39.602232c0-.283138.130914-.53574.335591-.700731zm80.241 41.595-1.602 1.6.73 1.012zm58.927-9.595-3.475824 10.415798c-.100239.300315-.34364.51274-.629167.586823l4.657991.755379 2.312-5.629zm-377.783-15.275-22.527 20.931.000005 2.564369 2.778995 3.215631 16.518124-16.496002c.113568-.393015.230133-.785225.349688-1.176597l.308805-.988231zm373.577 6.275-6.327 18.957 5.710641.928852c-.26946-.174771-.425797-.4823-.408704-.802139l.045223-.237157 3.60503-10.800609c.125167-.374996.473547-.612953.848438-.615651zm-131.6-17.964v37.404l3.605-1.756v-30.248zm-123.655 33.365-2.198 1.933 1.886 1.761 2.089-1.933zm8.966.02-1.979 1.831 1.595 1.58 1.823-1.61zm-17.959.5-1.677 1.524 1.366 1.341 1.741-1.531zm259.782-25.479-8.724 27.401 5.061.822 7.021-21.037zm-71.716 22.427-2.808554 2.753946c-.100286.098295-.209154.182503-.324145.252647l.337768 1.514636c.280395.073464.544584.214547.765806.419432l.217635.241455.28249.375884 3.278-3.313zm-196.069 3.411-.583.528.619 1.486 1.046-.951zm205.736-4.047-3.131 3.164 1.773 2.276 3.076-3.06zm57.261-32.038-9.735 35.644.133382.086915c.423906.274339.684942.683895.780703 1.124205l3.086915.50188 9.397-29.518zm-41.881027 19.132361-2.862799.000129c-.051608.151645-.124054.297813-.217367.434064l-.207074.250547-9.523733 9.623899 5.487 7.601 6.287-6.279 3.377-10.116zm-271.620973 10.098639.869 7.806 2.536-6.696zm196.564-19.289v26.669l3.651304-1.777822c-.008553-.025632-.015983-.051776-.022232-.078375l-.023802-.206373-.00027-19.20543zm-141.804 22.287-1.581 1.433 1.078 1.059 1.608-1.461zm8.712-1.014-2.289 2.08 1.473 1.374 2.279-2.004zm6.274478-11.575011-1.093478-.000989-6.135 5.56 9.408 9.319 7.365-6.813v-2.568l-.614068-.328951c-3.153728-1.706628-5.784773-3.211504-7.896278-4.517126zm132.224522-1.597989v15.935l3.605-1.756v-8.778zm191.027-6.678-1.96077 3.550039c.030766.070508.057193.143507.078912.2187l.061655.31898 1.820203 17.890281zm-364.177 7.771h-6.362l-7.474 11.196 7.524214 2.454881c.049824.016252.098456.034467.14584.05453l6.165946-5.645411zm223.683 7.726-3.34 3.274 1.714 2.201 3.225-3.259zm-123.094-14.264-24.613 2.782 1.287 16.701zm155.778 2.877-6.231 4.114 19.265 12.467zm-42.468 12.252-.587908.600649c-.085734.087493-.178215.1644-.275809.230703l.674717 3.035648 1.815-1.779zm-35.341-1.582v5.199l2.015-.982.258696-.902071c-.025032-.0231-.0495-.047005-.073366-.071705l-.203889-.253139zm-156.571 2.397-1.638026 1.47116c.172149.051748.338125.129772.491628.234122l.251341.206242.692057.679476 1.512-1.37zm9.036-.92-2.405 2.18 1.101 1.028 2.369-2.153zm230.235-15.376-1.873 1.237 13.268 16.88.164735-.603933c-.00781-.007898-.015558-.01588-.023242-.023944l-.202112-.254557zm-363.425-66.259-.002 83.557 4.893199-4.545951c-.012018-.04536-.022307-.091423-.030793-.138113l-.029041-.323571v-68.403855c0-.493185.198601-.940047.520292-1.265176zm91.473 73.149-11.117604.001074c-.039484.080931-.085406.159519-.137766.235l-.20857.249307-6.03606 6.026619 10.8 3.523zm28.966 5.94-.808786.766472c-.200641.190036-.433581.324957-.680076.405258l.644862 1.54627 1.915-1.719zm54.119-9.291-6.502.735 7.423 11.206zm-45.177 8.064-2.536 2.277 1.297 1.21 2.485-2.252zm192.678-2.238-3.448 3.519 1.671 2.146 3.436-3.367zm9.13.019-2.736 2.681 1.566 2.17 2.906-2.937zm52.174-22.549-16.929 11.178 9.804 14.911zm81.875-3.957-11.6 20.372.962 9.663 11.744-21.251v-7.999zm-168.386-14.088-18.207859 8.712176-6.580141 2.652824-.976896.994884c-.592694.602663-1.505707.700673-2.202486.289201l-4.331618 1.744915 19.727 29.549zm1.831 6.703-10.507 36.728 15.363-20.564zm-223.288 31.397h-21.386l16.137 5.264.103857-.123942zm231.484-4.113-11.647 9.254 12.61-6.142-.112059-.281785zm-195.908 4.113h-5.201l.001 4.76zm14.671 1.009-.01895.021395-2.56305 2.427605 1.141 1.064 2.616-2.349zm-8.438 1.912.335.804.261-.248zm19.431-2.417h-2.576l-.043795.047024-1.949205 1.749976 1.235 1.224zm182.808-.507-5.428818.000361-.275563.13423c.188955.076272.366621.185257.523825.32581l.221843.237606 1.892713 2.430993zm-311.007-59.149v61.72l5.495669-5.105546c-.024548-.075517-.044233-.153222-.058687-.232747l-.029041-.32357-.000941-47.087137zm320.154 59.149h-3.875l1.606 2.224zm103.303678-33.266083-20.098678 11.151083 24.292 24.132-2.678522-26.917638c-.282244-2.835679-.790497-5.632513-1.5148-8.365445zm-94.604678 33.266083h-3.501l1.674 1.846zm84.541-7.07-1.705 1.703 10.039657 6.577029zm-300.891 7.577h-1.045l.527.491zm183.889-11.446-7.092 9.495 8.028-6.378zm34.411 4.311-28.985 1.225.847 2.818 1.704509-.829947c.196898-.095909.409231-.154968.626493-.174756l.163707-.007439 29.891291-.000858zm-236.616594-23.598943-58.257406 27.083943.551111.179716c.264132-.309848.631561-.529172 1.0491-.604856l.324004-.029002 31.555785-.000858 28.854-16.729-3.292-9.862zm26.118594 21.966943-8.412 5.169 23.22709-.000474c.202143-.195387.451048-.344828.731338-.429043l.318683-.065206 1.739889-.197277 2.774-4.432-20.203214-.01629zm-20.879-8.583-22.84 13.245 17.217967.000777c.049219-.167667.12271-.3276.218355-.474575l.216801-.271629 6.962877-7.178573zm3.06 9.168-3.956 4.077h5.317zm242.967.998-1.557 2.798 3.306-2.183zm-200.555-1.479-2.413 3.856 7.553-.854zm196.655 1.074-4.895.207 3.422 2.441zm-236.158554-3.588641-.081446.082641 2.026 6.068 7.519-4.621zm-96.382446-33.525359v38.393l5.492227-5.102932c-.022686-.071578-.041013-.145092-.054669-.22023l-.029041-.323571v-22.749134c0-.267721.058523-.521791.16349-.750149zm139.352 30.501-1.555 2.486 9.213 5.379 8.15-.921zm8.466-13.527-6.536 10.444 18.065855 7.93282c.507284.22276.877886.662884 1.016844 1.18659l.052301.31259 28.848-3.26v-1.332l-17.402127-5.428279-23.654509-9.836493zm247.523 14.78-1.11714 1.117215c-.089221.089102-.18547.166911-.286963.233426l5.661103 3.707359 1.336-1.334zm-55.584-.197-1.541 2.77 3.059285 1.076231c.206582.072681.397168.181986.563065.321693l1.77665-1.172924zm-28.611-1.582-20.56 1.426 1.153 3.837 25.286-1.07zm127.936-15.967-4.685 8.534 1.176 11.818 9.264-16.268zm-121.989 15.785 5.786 4.128 11.714-.496 2.02-3.63zm-269.210701-76.58325-.016566.612566c-.234424 7.086643-1.400803 14.153511-3.502107 21.015039l-.292337.934373-18.231289 57.057272 47.719-45.488-25.510252-33.864935c-.063939-.084877-.119426-.174025-.166449-.266315zm303.538124 57.289103-.023853.075551-.131964.296936-9.736606 17.50166 5.261 4.083 19.718-13.02-6.179878-4.046897c-.036747-.003586-.073451-.008309-.110059-.014179-.020582-.003601-.041612-.007345-.062582-.011465-.032918-.006198-.065521-.01357-.097984-.021877-.014939-.004022-.030024-.008075-.045064-.012326-.031334-.00873-.062356-.018454-.093196-.029057-.027775-.009542-.055507-.019799-.083023-.03076l-.047503-.019901c-.102285-.044583-.193602-.094224-.280966-.152289l-.004529-.003434-.012296-.007887-.014916-.010268-6.686004-4.46466zm-228.249423 18.137147-6.104 3.751h16.854l1.739-2.778zm-29.291-2.282 1.192849 3.573934c.193799-.07772.400641-.121637.611304-.128697l.348606.022159 14.484241 2.363604 6.549-4.025zm294.972 1.08-1.414 1.412 3.734846 2.446425c.043452-.252941.14122-.498393.293302-.717632l.208571-.249306.607281-.607487zm-150.812-41.613-86.283 9.209 39.94 32.997 35.259 1.76zm46.393 25.099 5.091 16.948 17.017-1.178zm97.93 12.193-1.456 1.454 3.464 2.269.093658-.110716 1.329342-1.328284zm-100.18089-18.342461-.112372.053381c.054822.030456.10807.063756.1595.099771.001194.000329.002161.001009.003127.00169l.008672.006747 29.951963 21.365872 1.44562-.099954h24.469276c.16011 0 .318396.021289.470935.062523l8.948169-16.084569zm-273.16911 10.184461v11.32l2.364-7.398zm133.543 1.767-14.174 8.711 9.431.735 5.878-9.392zm248.523637 7.188046c.06531.232492.082971.475527.052982.713722l2.015381 1.342232zm-301.258637-9.718046 2.822 8.456 29.635 2.309 13.898-8.541zm74.809 5.097-.187.561 8.649616 3.599516 1.245384.387484zm-105.095 2.306-3.334 1.873 3.555-1.653zm326.775-2.423-1.347 1.345 3.483923 2.319239c.42104-.241618.918916-.299573 1.376816-.173864zm-12.599-1.819-1.117322 1.117403c-.142741.14255-.303465.256193-.47488.340931l5.710202 3.739666 1.476-1.474zm-304.946-.942-5.992652 3.367114c.111649.161869.193773.337926.246373.520668l6.577279-3.057782zm-9.050832-10.895228-14.412168 13.735228 7.004764-5.996721c.065896-.340669.230927-.665994.495093-.929807.334187-.333739.76695-.509037 1.204691-.525892l5.587175-4.781865c-.17913-.488905-.138981-1.039846.120445-1.500943zm337.607258-29.827155-36.975426 12.615383 31.035 30.831 6.413534-41.632912c-.170915-.601233-.328644-1.205872-.473108-1.813471zm-19.409426 37.468383-1.601 1.6 5.593 3.724 1.682286-1.677971c-.122063-.024831-.242639-.062606-.359712-.11372l-.285121-.156405zm-221.093 2.472v1.048l4.288 1.784.237-.712zm243.568474-31.282439-5.098474 33.093439 18.090438-10.035867c-1.808337-5.309524-4.452264-10.323857-7.853691-14.846535l-.402878-.528789-.768072-1.026323c-1.532767-2.11282-2.856992-4.341576-3.967323-6.655925zm-335.128474 28.563439-5.4 3.916.293.293 5.966-3.352zm100.611 2.664-.092.276 2.385 1.117zm199.189-3.981-1.567 1.565 3.592 2.353.019608-.007304c.765425-.276124 1.617517-.001318 2.080544.651657l.163334.28095.19986.429206c.045567-.243711.141774-.479838.28862-.691527l.20857-.249307.607464-.607675zm83.837-2.008-7.266 1.814 7.266 5.155zm-171.816-27.931-33.74 3.601v31.103zm155.537794 27.766576c.487879 2.241207.868415 4.51031 1.13865 6.799867l2.366556-4.312443zm-173.710794-3.907576-10.136312 10.425368 3.800312-1.531368 7.149-7.27zm-182.823 6.787-4.056 2.278 1.047 1.046 4.08-1.897zm73.525-.049.000939 1.359577c-.000141.021996-.000686.044008-.001637.066025l3.605698 1.500398v-1.237zm-167.057-55.54v7.361l30.283 50.243 1.949-6.101zm174.267 53.363v1.579l5.673 2.657.219-.656zm-94.795-.395-5.019 4.297.273.273 5.4-3.917zm83.139412 2.39507c.226314.142191.424302.33706.573904.579838.100687.163397.172098.336553.21569.513363l.050994-.086271v-.945zm-9.497412-.68307-.276 1.383 3.499.168.261-1.3zm233.622-4.021-1.629 1.627 5.593 3.723 1.611-1.609zm-243.604 3.302-.643 1.605 6.707.322.294-1.469zm17.09 1.231-.105.522.588496-.360735c.069341-.042615.140438-.079978.212825-.112201zm-59.217-3.801-4.304 2.418 1.242 1.654 3.563791-1.655357c.132383-.061546.271262-.106568.413509-.134455l.143254-.022153.071446-.002035zm34.215 2-.303 1.812 3.763.181.679-1.695zm-45.209-2.49-4.351 3.156 1.169 1.167 4.521-2.54zm37.391 1.927v2.014l3.889.187.317-1.898zm-7.372-.531.127335.636105c.114654.572501-.056358 1.135856-.414763 1.542851l4.054428.194044v-2.102zm252.257-4.219-2.019 1.512 1.232673.821543c.161444.033786.317559.089562.463929.165809l.155125.090915 5.742273 3.761733 1.586-1.584zm-261.042 3.586.638 2.434 5.045522.242768c-.086176-.118932-.158518-.249563-.21419-.390006l-.09202-.3116-.323312-1.611162zm-6.3-.454.636921 1.271104c.036844.07359.068167.148495.094126.224246l.003671.011541.367282 1.101109 2.062.099-.662-2.527zm69.322-4.035v1.974l7.061 4.291.113-.338zm-7.21 1.807v2.582l3.605 1.689v-2.081zm121.172-4.665-6.685 6.797.65 1.298 3.103263-1.485078c.046697-.166901.118045-.328609.214262-.47948l.198744-.257188 3.140731-3.389254zm178.115-1.344-17.588 4.392 6.985104 4.956061c.184134-.289639.450918-.527418.77712-.674669l.307287-.106613 9.518489-2.376779zm-303.923977 7.426345-.325301-.00113-.896722-.083215-.264 1.319 2.518.181.000844-1.857911c-.28258.248308-.642088.408348-1.032821.442256zm-75.588023-3.731345-4.615 3.95.862.861 4.769-3.459zm67.289 2.988-.294 1.466 3.483.251.279-1.394zm-56.225-4.475-4.968 3.604 1.591 2.119 4.872-2.737zm47.293 3.644-.652 1.628 5.666.408.309-1.54zm232.109-4.5-1.952 1.462 6.702 4.462 1.639-1.637zm-241.175 3.657-.308 1.842 4.949.357.682-1.704zm218.396-.58v1.589l9.55.791-3.220797-2.148941c-.227134.135135-.485444.221421-.759228.245789l-.325304-.000412zm-227.117-.231v2.047l4.802.346.32-1.917zm-8.558-.796.452 2.259 4.501.324v-2.123zm214.045-.936.000135.646728c0 .4077-.135719.783744-.364501 1.08553l18.389366 1.521742v-1.618l-7.240606-.655996c-.156509.834941-.890205 1.466825-1.771683 1.466825-.88489 0-1.620852-.636786-1.773474-1.476531l-.028237-.316298zm-223.253.079.646 2.467 5.284.381-.469-2.34zm-25.454972-3.404992-6.260295 5.966158c.529854-.267749 1.164483-.257397 1.686235.031056l5.057032-4.329222-.161462-.215414c-.324534-.432132-.42509-.962561-.32151-1.452578zm17.544972 2.668992 1.548884 3.091222c.240098-.16427.52108-.271581.822256-.304052l.325254-.005648 2.061606.148478-.668-2.549zm184.965-6.609-7.675 7.893.824 1.644 7.364-7.488zm77.225 4.332-2.438 1.217 5.613 3.747 2.015-1.509zm-201.626 2.363-.38 1.897.519043.048527c.394632.036706.747653.197842 1.023818.440979l-.000861-2.273506zm-152.928-47.172h-6.553l30.86 49.31 2.076-6.497zm157.695 43.522v3.582l.285098.141014 3.319902 2.016986.000765-.872272c0-.547253.244533-1.037469.630431-1.367619zm129.781 2.262-3.204 3.458 3.204-1.533zm25.236.977.000044 1.628728c0 .074217-.004498.147386-.013235.219248l7.428319.615339c-.082924-.157976-.143041-.329769-.175982-.511017l-.029041-.32357-.000105-.974728zm-166.856-.279-.386 1.928 3.469.323.383-1.913zm226.448-3.125-1.314.984 5.932 3.981.459-.458-4.301445-4.272878c-.217504-.012011-.434677-.063496-.640372-.15649zm-70.408 2.422v1.935l7.211.597v-1.877zm-216.336-4.237c-.055721.280926-.178893.550124-.367225.781464l-.227103.232597-4.752672 4.067939 1.19 1.585 5.481044-3.97589.015956-.01111zm52.435 4.174-.772 1.927 4.638.432.389-1.944zm153.086-.919v2.022l7.21.597v-1.964zm-163.39-.085-.336 2.014 6.126.569.778-1.943zm-9.651-.94v2.087l5.716.532.338-2.029zm338.942-7.967-15.899105 3.541077c-.482987.107546-.963912.010604-1.352093-.233287l-1.979382 5.916216c.153744.407655.303754.816733.450008 1.227183l18.780572-4.690189zm-111.825 9.905v.381l.66.06zm15.516-3.956-2.404 1.2 4.534 3.019 1.964-1.471zm-73.197-3.887-5.648 5.742.586 2.338 5.062-5.463zm46.866 4.367v2.875l7.21.655.000287-.974475c0-.454686.168805-.869998.447242-1.186845l-1.624176-1.084699c-.137779.051001-.283128.085568-.433471.101484l-.325265.00502zm-226.033.589.435 2.172 5.691.529v-2.104zm215.218-1.389v2.693l7.21.655v-2.815zm-224.807.454.584 2.229 5.693.529-.438-2.189zm249.655-1.193-2.429 1.212 3.033749 2.025172c.1211-.223762.290422-.423545.502194-.582062l.276811-.170645 1.341246-.670465zm-35.663-.061v2.511l7.21.655v-2.633zm-223.41.336 1.286189 2.569713c.180303-.080921.375581-.132909.579352-.150592l.325301.00113 3.991158.370749-.588-2.246zm-6.238-4.411-6.771749 6.45355c.538543-.087279 1.101536.072829 1.514676.455459l.217635.241455.020438.027536 4.574549-3.914417c.558783-.478315 1.326393-.555242 1.950435-.257852zm70.92 5.337-.346 1.728.452.044v-1.761zm-7.10301-.706705-.000285.030081-.035065.322975-.27964 1.392649 3.466.338.348-1.736zm155.01501-1.355295v2.329l7.211.655v-2.451zm-162.381365.6229c.149415.335082.196793.715222.120394 1.089764l-.093368.311199-.151661.377137 3.57.348.350617-1.746707-.000617-.001293zm226.518365-1.4079-.241905.150179-1.412095.704821 3.442 2.31 1.342-1.005zm-237.451.321-.297 1.782 7.368.718.541474-1.349219c.054174-.135253.122932-.260327.203745-.37414zm162.499-.336v2.162l.164053.000715 7.045947.639285v-2.269zm-173.041-.713v1.833l6.648.648.299-1.79zm236.481-.696-2.432 1.215 2.725 1.814 2.42-1.208zm-247.33-.383.379 1.891 6.865.669v-1.84zm234.558-.958-2.21 1.345 2.963 1.978.046693-.027738 2.371307-1.184262zm-54.273-6.243-7.192 7.397.519 2.076 6.673-6.785zm-190.231 6.212.503 1.923 6.072.592-.164718-.825852c-.072755-.363289-.030481-.722894.101712-1.0412zm226.282-.82v2.391l7.21.533.000196-.767881c0-.460664.173273-.880913.458282-1.199292l-1.30793-.872734c-.222494.138618-.47668.22983-.74755.260523l-.325219.007415zm-312.745-35.433h-6.548l23.594 38.29 1.881-5.886zm69.596-30.644-.777 1.081 5.98518 59.772596c.045611.455498-.083007.888287-.331779 1.232363l67.840599 6.750041.234429-.216396.184571-.146604zm6.023 65.819 1.060951 2.118974c.107074-.02965.217844-.049599.331194-.05893l.325293.00257 5.805562.565386-.505-1.93zm273.093231-.645466c-.110811.351335-.328831.668584-.636386.898796l-.276811.170646-.354034.176024 2.713 1.821 1.733-.865-3.070242-2.118998zm-46.782231.182466v2.312l7.21.533v-2.365zm123.76533-84.58891v87.348122l3.247948-9.702596c-.031699-.081808-.057796-.166949-.077735-.255074-.173877-.768488.172701-1.533221.807311-1.926571l.251146-.749971-.015375-.180177v-71.672472c0-.744061.45204-1.382683 1.096822-1.656914zm-188.64233 18.02791-87.362406 68.783782 86.592406-9.241782.753877-2.988107zm54.061 65.841v2.231l7.211.534v-2.285zm45.267-1.01-.030587.023625-1.988413 1.210375 3.49 2.324 2.448-1.223-2.664493-1.787043c-.189635-.127266-.347319-.284236-.471017-.460547zm-55.253.345-.155151.19007-.673849.68393v1.234l.134016-.001084 7.075984.523084v-2.205zm165.072-7.88-13.713 3.094-2.398 7.163 16.111-3.588zm-127.251 5.634 6.506 4.343 2.204-1.343-3.296114-2.194512c-.109391-.07283-.20824-.155535-.29615-.246141zm103.145124-56.988949-.151314.49142-.154513.490704-4.497297 14.123825.001047 38.208143c1.753492 2.337142 3.355951 4.772132 4.801369 7.289857zm-276.351477-106.124912c-1.31422.270802-2.62036.583597-3.916391.938081l-70.109256 97.50078 71.669 67.099zm3.591353 1.217861-2.325549 163.130722 59.219549-99.494722zm163.411 162.085v.554l.922.061zm-11.288102-2.09698c.224574.244782.382249.551784.444105.892123l.029041.32357-.000044.715287 7.21.48.000105-1.195287c0-.128177.013414-.253224.038918-.373819zm-21.157898-90.66302.000861 84.678307-.002861.054693 70.588 7.702zm10.815 89.535v2.339l7.211.48.000013-.475287c0-.609357.303183-1.147996.767121-1.473682zm115.216445-65.056026-50.001445 67.555026 37.605919-12.829328c-.936417-6.23757-.503112-12.688366 1.381481-18.890076l.169369-.544392 9.124738-28.660367c.69584-2.185599 1.269108-4.399217 1.719938-6.630863zm-126.031445 63.876026v2.81l.120763-.00234 7.089237.47134v-2.493zm-71.555-91.229-56.247 94.505 82.598-65.032zm-197.884 64.364h-6.688l16.231 27.786 2.652-8.299zm229.784-28.139.000526 53.06764-.054566.439564-.147857.590691c.081581.156606.140786.326697.173382.506045l.029041.32357-.000526.43949 32.48-3.467zm-175.006 2.999-16.610671 23.102586 21.825671 28.968414zm276.855631-89.404968c-.143059.007139-.286162.013733-.429305.019781l-61.036326 48.053187 71.041 93.032zm4.302182-.380605c-.236113.030055-.472435.058615-.708951.085677l9.519138 140.303896 51.772538-69.949507c.357043-4.493107.230439-9.013695-.378763-13.483169zm99.404187 131.047573-10.281608 2.177092-.003392.000908-2.092 6.248 12.377-2.792zm-169.506-79.182-35.943 28.299 35.669845 56.995256c.222925.356202.305848.760162.263604 1.147676l.026551-.003932-.016169-.189693zm136.991 63.584-1.021441 3.210542c-1.89128 5.940421-1.479889 12.296856 1.021026 17.861193zm-393.16-.524h-5.414l9.375964 14.980625c.564125-1.862511 1.039806-3.744245 1.427143-5.639079zm425.675 6.584-6.802 1.311-2.157 6.444 8.959-1.898zm-13.137582-54.791025c.212918.240666.362371.538644.422196.867805l.029041.323571-.000655 61.131649 4.151575-12.402989c-.263232-.255673-.448513-.590976-.516849-.966967l-.02904-.32357v-47.438123c0-.090787.006729-.180004.019718-.267181zm13.137582 45.506025-3.459.609-2.031 6.068 5.49-1.058zm-419.095741 2.702344-2.418259-.000344 2.11973 3.672216c.135421-1.221626.234922-2.446113.298529-3.671872zm9.989631-61.075156c-1.707192 8.4179-1.201612 17.242043 1.626473 25.575646l.228097.656881 1.599278 4.502942c3.153344 8.878582 4.710665 18.176083 4.665261 27.473792l.116064-.198561 19.766937-27.489888-.475-4.749zm-54.514562 50.03444-2.723328 4.915372.000694 2.405407c.094542.031832.186595.071513.275084.118793l9.114222-.0002.047806-.02579c.535418-.266032 1.151513-.241907 1.652893.025913l9.114301-.000123.086195-.044205c.527633-.24684 1.125326-.216518 1.613431.043752l9.114374.000453.037794-.020196c.537529-.271747 1.158987-.249575 1.664258.020396l8.019948-.0002.094078-.048386c.52566-.242391 1.118987-.210723 1.603962.047708l4.892855.001375c-.013366-2.476831-.172959-4.952504-.478569-7.413932l-43.824476-.000385c-.10414 0-.206216-.00882-.305522-.025752zm463.621672.360372-.613.08-1.547 4.622 2.16-.38zm-5.478-35.792v39.049l3.068633-9.166737c-.177663-.234506-.298938-.513431-.344403-.816155l-.019091-.324307.857861-27.933801zm-427.969-28.989-31.916943 54.679348c-.228238.391003-.581297.664185-.979369.798548l-.000688 6.420104 33.001676-59.572191c.110315-.199132.247785-.365602.403696-.500027zm11.350254 52.740727-.055562.09064c-.265565.40451-.689873.695745-1.184503.785402l-.324004.029002h-32.445274c-.491345 0-.936772-.19633-1.261914-.514721l-4.273997 7.71495 41.597022.000225c-.50151-2.733759-1.18553-5.441694-2.051768-8.105498zm-3.616271-10.784288-.044321.074319c-.265566.40451-.689874.695745-1.184503.785403l-.324005.029002-24.405154-.000163-3.988 7.2 31.998185.000568c.240202 0 .469431.046922.678997.132087l-1.258936-3.541504c-.549746-1.54787-1.040374-3.108811-1.472263-4.679712zm-9.514983-48.365439-30.147537 50.180307c-.228938.381053-.576762.647011-.967686.778952l-.000777 4.658741 31.551-54.051zm-10.436742 38.414809-4.011258 7.238191 22.410154.00096c.339787 0 .657615.093892.928889.257113-.580954-2.469112-1.017793-4.959264-1.31312-7.457925l-17.640921.000406c-.128144 0-.253166-.013354-.373744-.038745zm135.635742-85.940809-51.274287 15.686563c-8.629899 2.640102-16.527286 7.077401-23.207504 12.950019l6.383791 63.753418.993.93zm-127.027 40.948-28.330054 45.974982c-.134069.217571-.306999.396666-.50435.533851-.191668 1.578459-.322382 3.166893-.392565 4.761731l29.724969-49.477564zm240.535238-44.695817-39.004238 65.533817 26.775 29.947 12.572335-95.45322c-.114338-.009511-.228704-.01871-.343097-.027597zm3.497762 3.684817-11.821 89.637 35.76349-28.157594c.010114-.011941.02038-.023749.030797-.03542.004167-.005137.008563-.010001.01299-.014846l.017519-.018493c.020234-.021564.040994-.042631.062259-.06318-.10689-.102575-.20207-.220052-.282161-.35038l-.144501-.291058zm-194.798673 31.829352c-2.607792 2.650004-4.989337 5.539085-7.10944 8.640963l-.524559.779888-6.461476 9.762961c-2.758773 4.168366-4.832111 8.676787-6.200025 13.361902l25.991173 24.334934zm-44.248693 29.631917-5.639634 10.179731 6.839124.000742c.995501 0 1.802515.805933 1.802515 1.800102 0 .883705-.63764 1.618681-1.478511 1.771099l-.324004.029002h-7.210061c-.516478 0-.982222-.216929-1.310856-.564529l-4.301207 7.764584 15.715477.000185c-.212602-3.329259-.176292-6.663495.105518-9.974806l-.462995-1.214379-.773307-1.647123-.389693-1.398877zm429.333366 15.580731h-12.69l13.546058 3.067943c-.137287-.548722-.282016-1.095771-.434164-1.640995zm-436.201-42.802-17.227755 26.493934c-3.430031 5.274678-6.03155 11.003666-7.745637 16.988327l24.295328-39.425773c.346447-.562223.952386-.867518 1.568673-.856645zm433.399 33.801-15.947391.000552c.267837 1.794001.475035 3.59501.621553 5.399939l17.010838-.000491zm-60.948834-68.29801-9.138994 6.006532c-5.943064 3.90339-12.506766 6.602989-19.327883 8.034043l54.63242 51.686723c-.410186-1.729875-.894649-3.446405-1.453326-5.144837l-.344112-1.016849-6.925514-19.904576c-.662763-1.904842-1.416655-3.776626-2.259021-5.608909l-.428544-.91282-11.994691-25.026363c-1.049394-2.189512-1.862225-4.448138-2.442933-6.742762l-.167253-.689434zm-363.392166 53.70901 3.126336 11.260977c.611904-2.994537 1.428939-5.951174 2.448453-8.848248-.426636.194706-.922535.220422-1.378251.050273l-.29321-.140702zm420.971 3.788-14.954385.000305c.696869 2.378419 1.282252 4.781268 1.756046 7.200833l15.445339-.000138zm-181.368302-60.125189 24.155302 62.035189 56.227209-44.268833c-2.418136-.14568-4.835902-.448127-7.238348-.910004l-.651932-.129331-1.452924-.317191-67.889773-15.762593c-1.044759-.242571-2.09495-.458357-3.149534-.647237zm-11.136815-.989434h-86.29571c-2.104459 0-4.204977.105155-6.293781.314303l55.961608 62.59432 37.441-62.903zm188.574117 48.514623h-13.327l.286 6.496.787851 2.264302c.027821.07996.055513.159954.083076.23998l14.978073-.000282zm-419.627-.506 1.205752 4.342552c.006861.012085.013577.024243.020148.03647.035386.009715.070511.021593.105401.03462l.29321.140702 6.711024 3.993096c.327602.194925.57083.477306.717614.799546.495199-1.25677 1.030638-2.500875 1.604739-3.730514zm-2.648-9.537 1.329 4.787.151272.063951 13.436825 7.080047c.672384-1.259172 1.38693-2.500712 2.143382-3.722516zm418.344-2.558h-9.952l.397 9.001h12.363zm-418.186225-4.554083c-.414347.914795-.876011 1.812903-1.384698 2.690665l.017673.06403c.174059-.004562.350413.016102.523666.063876l.3045.11431 19.419084 9.343202 2.373-3.586zm399.177396-54.967835 2.782018 58.315809c.227909.587791.448962 1.178275.663111 1.771333l.316037.891502 2.004663 5.763274-2.549-57.84-.653378-2.095675c-.725525-2.325547-1.582373-4.597503-2.563451-6.806243zm-397.12417 48.681491-.057721.273218c-.195229.891498-.431027 1.775442-.707164 2.648984l21.990884 8.992225 1.184933-1.788445c.355377-.536957.716779-1.069116 1.084098-1.596396l-22.96507-8.231204c-.197903-.070938-.375728-.172881-.52996-.298382zm412.201999-1.760573h-6.577l.397 9.001h8.988zm-411.575509-5.470304c.046891 1.38964-.001987 2.780007-.145819 4.161013l.082099-.031769c.274541-.092682.572789-.12003.870316-.070535l.314766.082016 23.963831 8.589921c.730616-.951562 1.481267-1.885456 2.251252-2.801159zm357.010509-73.521696 2.549542 8.831857c.136688.03047.271074.077223.400253.140693l.277774.169078 20.228118 14.938604c2.811246-.295398 5.563873.909317 7.488293 2.901711.438761.220234.777814.615413.92003 1.099937 1.833973 2.547912 2.428487 5.953037.655652 9.17165l2.498338 37.44947 3.211 6.699-2.685033-56.326621c-.007053-.147907.003976-.292494.031143-.431625-.338974-.552163-.686569-1.098236-1.042428-1.638731-.477541.234316-1.045899.250263-1.544856.021028l-.282089-.161796zm-357.990644 66.836485c.29159 1.107342.518909 2.225952.682396 3.350395l.105858-.051496c.310849-.131849.659141-.177224 1.006008-.118012l.314415.083346 28.767391 10.450095c1.096798-1.184626 2.227579-2.334937 3.390608-3.449637zm405.41688-.599597.403764 9.155112h5.612l-2.808-9-2.474467.00009c-.261121 0-.509275-.05545-.733297-.155202zm-407.656764-5.812257c.166997.642958.386674 1.276774.659525 1.89515.070402.159556.13935.319533.206846.479913.116215-.011706.235097-.01049.354514.002912l.318685.065198 36.050305 10.800609c.634619.190131 1.086545.698245 1.233515 1.297588 1.350352-1.19768 2.740386-2.349413 4.167117-3.453448zm46.254528-7.617631-7.636958 12.711133c-.272752.453978-.714247.744591-1.19633.839846l7.521453 1.939519zm74.903-22.833-70.89532 23.724114c-.156545.052383-.315227.082103-.472473.090936l-1.162586 13.73342c5.989142-3.867845 12.501917-6.955206 19.387324-9.149335l.900197-.281116 55.114963-16.861041c1.691785-.517559 3.398457-.979204 5.117218-1.384517zm-72.916-.64-19.629 34.751 7.29812 1.884076c-.584299-.490192-.794686-1.300287-.526163-2.010851l.141797-.292381 10.815091-18.001014c.146741-.244242.342325-.441198.566794-.585886zm341.18257 12.234227c-3.554716 5.180041-4.193803 11.897752-1.563988 17.708111l.168623.361944 3.022795 6.306718zm-339.36457-33.698227-32.633 53.329 7.573 1.954 23.120069-40.927787c.188006-.332822.466174-.58292.786654-.736977zm357.106811 47.243086.349495 7.904317c.168642-.093581.353893-.160926.550223-.196514l.324004-.029002 1.350467-.000887-2.338337-7.49369c-.083731-.054891-.16261-.11656-.235852-.184224zm-355.422811-67.124086-45.558 70.31 7.613 1.964.105155-.209866 36.050304-58.91333c.183051-.299141.439508-.526051.732086-.671743zm1.503643-17.745736-.022037.032171-.697296 1.05103-50.950468 79.24593c-1.180914 1.836737-1.838771 3.918566-1.956983 6.033187l3.204035.826749c-.005802-.246121.038804-.495262.137278-.731289l.151643-.287411 48.98916-75.604261c.080606-.124398.173987-.23556.277313-.332879zm202.733171 59.845987-6.277926 9.105066c.61289.120107 1.224531.247311 1.8348.381597l.914358.20674 67.889773 15.762593c2.70338.627668 5.443789.954136 8.174465.987738l-2.570104-11.804351c-.166677.045231-.34145.06688-.519647.061905l-.323037-.038279-68.495578-14.400811c-.230849-.048535-.442003-.13918-.627104-.262198zm55.969186-66.589251 20.224211 92.902729c.756861-.063333 1.511335-.149176 2.262405-.257347l.28769-1.460968c-.038352-.067093-.072621-.137155-.102404-.209925l-.095468-.310562-18.749434-88.511927zm53.377 67.16-24.384354 17.395777c-.387977.276755-.848366.37798-1.286379.319453l-1.037267 5.22777 27.812-19.119zm.878666 8.353666-17.668172 12.144129c.32121-.191251.640047-.387474.956393-.588649l.472639-.305474 9.959085-6.541103c2.191142-1.439136 4.288488-3.012129 6.280055-4.708903zm-254.914666-21.232666-59.228475 19.717092c-.300214.099937-.608147.116599-.898666.062535l-1.048859 12.389373 68.625-22.964zm208.669-49.777 16.504 77.912 2.425133-12.232047c-.285193-.191452-.516279-.464101-.655134-.79372l-.098636-.309573-13.825363-62.13066zm43.171 55.047-20.580053 13.166102c-.168202.107606-.347541.183799-.531114.230091l-1.481833 7.472807 23.544477-16.794843c.061684-.044001.125198-.083565.190162-.118755zm-94.668916-11.062867-10.344084 15.000867 67.034 14.094-3.116247-14.311273c-.073042-.010579-.146238-.025751-.219253-.045705l-52.695406-14.400811c-.248655-.067954-.470833-.184706-.65901-.337078zm-189.955835-59.42738c-4.067563 1.047558-7.93219 2.664455-11.489644 4.779147l66.093939 81.675698c2.114575-.388539 4.243924-.692986 6.382993-.912586l3.814463-7.202012zm142.056537-37.136266 22.085673 122.706694c1.047763.111104 2.093317.242592 3.136062.394395l4.50348-6.52847c-.084575-.123024-.154549-.257761-.207003-.402142l-.082966-.314124-19.207373-112.764095c-3.329858-1.323644-6.751999-2.355487-10.227873-3.092258zm-72.742748 114.657808-4.076433 7.696832c1.009576-.050336 2.020559-.081848 3.032426-.094458l1.012142-.006306h86.29571c1.617262 0 3.233137.048303 4.845475.144662l-1.338358-7.433025-88.762659.000061c-.373529 0-.720522-.113465-1.008303-.307766zm221.079962-.039295 1.46917 5.085548.323302-.332688.320891-.335112 1.568637-1.652748zm-268.820935-26.119155c-.140554.449291-.455209.83738-.889919 1.062317l-.301137.122877-46.178009 14.188961-1.236 14.6 57.398-19.107zm261.150935 12.540155-16.802628 10.069331c-.153995.092274-.316243.158905-.481761.201138l-.980611 4.941531 18.449494-11.802209c.226335-.144795.472834-.232713.72268-.267434zm3.121-2.185 2.936471 10.173c.088286.028105.175092.063285.259593.105658l.276389.171326 7.255547 5.450016 3.027813-3.185297c.513171-.540198 1.045417-.999011 1.59035-1.382352zm-129.609334-94.033096 18.344334 107.693096 7.686981-11.146848c-.032221-.064639-.060739-.131676-.085236-.200883l-.080367-.314798-14.537378-89.816471-7.658307-4.305946c-1.206241-.678203-2.430297-1.314313-3.670027-1.90815zm-135.054232 27.846921c-.019701.004665-.039404.009324-.059109.013975l-2.201573.487475-14.964752 3.095725 62.671 75.765 6.938-13.1zm55.668025 67.762729-5.791459 10.933446h87.379l-1.944-10.8-78.960598.00025c-.241711 0-.472309-.047513-.682943-.133696zm173.175541-43.032554 11.858 53.293 2.072964-10.455163c-.257564-.181012-.468802-.429704-.603919-.728225l-.106756-.306875-10.013289-39.999737zm-49.730803 24.171161-3.5681 5.177368c-.0345.678013-.452668 1.281339-1.072148 1.554001l-3.623949 5.25347 50.638 13.838-3.373-15.488-37.824056-9.393972c-.531726-.132055-.949039-.487279-1.176747-.940867zm80.123803 11.479839-.108159.076848-12.590762 7.200406-.115079.058746-1.241 6.26 15.328-9.185zm-.999-16.463.731818 2.533885.021578.009965c.094063.043448.184698.095132.270712.15477l.004674.003813 30.471087 21.299426c-3.063288-3.478874-6.517842-6.628381-10.312944-9.379694l-1.232669-.871345zm-268.998219-1.86956c-.141331.16941-.31501.314318-.515758.424178l-.298194.129836-32.445274 10.800609c-.496403.165246-1.01391.102813-1.438906-.130568l-1.190649 14.064505 44.789821-13.76196c.122095-.037517.245132-.061439.367477-.072629zm161.161219-61.42244 13.576 83.88 7.805-11.318-11.294-66.891zm-17.701814 72.751856c-.101934.038822-.208303.068671-.31814.08858l-.324004.029002h-68.495579c-.11014 0-.217974-.009865-.322662-.028759l-5.735801 10.829321h77.161zm123.894814-2.155856-6.957479 4.294743c-.265592.163913-.557142.250659-.848389.266428l-1.440132 7.262829 9.989373-5.712363c.300833-.17204.630463-.247926.953244-.237331zm-238.876-57.023-9.133476 3.260801c-1.577792.563182-3.172207 1.077237-4.780925 1.541515l50.422401 63.781684 7.789824-14.70595c-.508869.072667-1.037848-.073777-1.439323-.422955l-.225081-.234548zm218.667 34.803 7.832 31.29 1.558127-7.855274c-.000924-.002048-.001845-.004099-.002761-.006152l-.105216-.307405-4.97315-20.294169-1.068663-.736443c-1.052869-.725527-2.127469-1.418823-3.222295-2.078948zm-45.468 2.779-10.016 14.527.258961.04024 36.100039 8.96576-3.550356-16.301731c-.251365.078953-.521685.103562-.792862.06479l-.316561-.074808-21.630182-7.200406zm61.075 7.833-2.307 11.64 5.872-3.625-2.002-6.938zm-272.523-9.639-.095658.039517-23.432698 7.200406-.040644.010077-1.081 12.771.021545-.00839 32.159455-10.70561zm150.508504 8.278852c-.264254.418205-.696175.720178-1.201488.811772l-.324005.029003-57.603011-.000627-5.72 10.801 66.928042.000235.014958.000765zm34.549496-49.684852 10.192 60.36 8.367029-12.131733c-.204113-.194087-.363995-.436883-.459631-.713727l-.07797-.315398-6.252428-40.582142zm-128.667-.846-14.552 5.194 41.858476 52.253518c.084561.105559.155293.21771.21244.334269l7.212386-13.619582c-.374684-.037669-.736982-.191816-1.027927-.454758l-.220568-.238786zm209.299 47.183 2.262 9.229 1.338-6.749zm-117.624-10.213h-49.06l-5.72 10.801 55.697011.000424c.4119 0 .791532.137974 1.095081.370168zm73.576243-7.696481-8.067243 11.700481 19.859 6.61-3.489-16.023-.285978-.044236-7.210061-1.800101c-.314117-.078424-.588185-.23473-.806718-.443144zm-230.454243 2.088481-.193423.093897-13.462577 5.041103-.774 9.139 20.807-6.393zm209.633-21.654 5.467 35.491 6.976-10.117-2.559-19.817zm-126.699-16.037-14.163 5.055 32.725 42.486 7.986459-15.076719c-.546921.109369-1.127695-.039175-1.556335-.422415l-.221843-.237606zm71.35 28.89-.094019.009003-38.746981-.000003-5.719 10.8h46.506zm-160.645879.940438c-2.416603 1.720875-4.659522 3.687099-6.690295 5.872273l-.267826 3.152289 10.944-4.099zm229.797879-6.032438 1.702 13.173 6.07-8.803zm10.924 6.141-1.864 2.703 5.412 1.352-.511-2.347zm-136.03793-35.431866-11.81507 4.216866 24.04292 30.869949c.098797.126856.177925.262759.237842.404047l6.43404-12.149898c-.082607-.048792-.161956-.10462-.237124-.167401l-.229732-.230007-18.025152-21.601217c-.324901-.389359-.457311-.875228-.407724-1.342339zm25.35055 18.851944-6.32262 11.938922h36.288l-1.944-10.8-26.344263.000192c-.761825 0-1.413264-.471982-1.677117-1.139114zm-10.19062-24.263078-12.109 4.322.126255.126679 17.491745 20.962321 5.77699-10.905563c-.234373-.079568-.454103-.207836-.64263-.382439l-.217635-.241455zm17.611737 10.24879-6.14166 11.59715c.024369-.005479.048924-.010466.073656-.014949l.324004-.029002 25.695263-.000989-1.944-10.8-16.541202.00038c-.604226 0-1.139014-.296902-1.466061-.75259zm3.733586-14.739323c-5.8862.213245-11.76595 1.250507-17.463606 3.126687l-.317717.108846 9.423 12.547zm3.738574.630694-5.963897 11.260839h15.851l-2.023499-11.242772c-.019974-.002976-.03995-.005943-.059927-.0089-.240184.213241-.538562.362494-.868165.422239l-.324004.029002h-5.407546c-.46276 0-.884791-.174152-1.203962-.460408z" fill="#000" fill-rule="nonzero"/></g></svg>