<svg height="20" viewBox="0 0 215 20" width="215" xmlns="http://www.w3.org/2000/svg"><g fill-rule="evenodd"><g fill-rule="nonzero"><path d="m16.6408159.17492091c2.7388814 0 4.9591835 2.2203021 4.9591835 4.95918354v8.08163295c0 1.5387026-.7007692 2.9137319-1.8005674 3.8233475l.0215254.0370059-.2644894.1516214c-.8183473.5957481-1.8259557.9472087-2.9156521.9472087h-11.68163236c-2.73888144 0-4.95918354-2.2203021-4.95918354-4.9591835v-8.08163295c0-2.73888144 2.2203021-4.95918354 4.95918354-4.95918354zm-9.6548159 10.39499999-2.96379934 5.1885962c.24286129.0895213.50207879.145243.77194697.1614596l.16503591.0049441h11.68163236c.3091223 0 .6061526-.0517723.8828928-.1471192l-2.9537087-5.1708807-.7471189.7548422c-1.6156367 1.6156368-4.2027199 1.6677541-5.8810306.156352l-.1647322-.156352zm12.363-4.74699999-.3398642.35243747-.0241358-.02335838-3.43 3.45992091 3.097023 5.41898599c.399394-.4422492.6549789-1.0168679.6930322-1.6501336l.0049443-.1650359zm-17.1.011.00099994 7.38181649c0 .6770703.24837332 1.29613.65897816 1.7710371l3.0880219-5.40585359zm14.3918159-3.40900006h-11.68163236c-1.33284942 0-2.44089555.96249731-2.66700149 2.23035502l.34386595-.3437713 6.09566443 6.09566443c1.09659219 1.0965922 2.84726597 1.1404559 3.99427717.1335073l.1401413-.1313414 6.2716251-6.32821093c-.3906262-.92516144-1.2804211-1.58807456-2.3319042-1.65125882z" transform="translate(39 1)"/><path d="m6.04999983.77500001c1.86396102 0 3.37499997 1.51103895 3.37499997 3.37499997 0 .59802082-.15553732 1.15971396-.42836555 1.64683298.594428.32364395 1.10360485.78582498 1.48448135 1.34270001.7435723-1.63124007 2.3888808-2.76453306 4.2988841-2.76453306 2.4929002 0 4.5415031 1.93284648 4.7135687 4.40329239l.0102759.21934018.001239.08876931c.0069033.58481892-.4332809 1.06982121-1.001483 1.13188901l-.1236007.006709-5.8049996-.0009998.0425772.0808926c.398217.7131519 1.1389922 1.2089778 1.9996905 1.2648426l.162732.0052645c.397533 0 .7793278-.0929697 1.1239232-.2690511.5532745-.2827122 1.2309757-.0633782 1.513688.4898964.2827123.5532745.0633782 1.2309758-.4898964 1.513688-.659756.3371222-1.3921556.5154667-2.1477148.5154667-1.7170708 0-3.2202206-.915905-4.0475466-2.2858121-.6808914 1.2974168-2.01147725 2.2006807-3.55982584 2.280115l-.22262739.0056971h-4.94999987c-.57989897 0-1.05731984-.438761-1.11839862-1.0024189l-.00660135-.1225811v-10.79999972c0-.57989898.43876093-1.05731984 1.00241883-1.11839863l.12258114-.00660134zm.90000004 6.74999982-3.82699984-.00099982.00099997 4.04999999 3.82599987.0009997c1.11837659 0 2.02499995-.9066233 2.02499995-2.02499993 0-1.06754129-.82607625-1.94214213-1.87387183-2.01944563zm7.82999983-.89999998c-.9294952 0-1.7393169.51238323-2.1624225 1.27010708l-.0415772.07889307h4.408l-.0096818-.02019394c-.3894637-.74393823-1.1462324-1.26459616-2.0276511-1.32327585zm-11.6559997-3.60099985-.00099997 2.25000001 2.94515084.00085653c.5716834-.00904288 1.03980731-.44450939 1.10024765-1.00227542l.00660134-.12258114c0-.57989901-.43876095-1.0573199-1.00241888-1.11839869l-.12258115-.00660134zm13.7559996-2.24899999c.6213203 0 1.125.50367964 1.125 1.12499997 0 .57989897-.438761 1.05731983-1.0024189 1.11839862l-.1225811.00660135h-4.1999999c-.6213203 0-1.125-.50367965-1.125-1.12499997 0-.57989898.438761-1.05731984 1.0024189-1.11839863l.1225811-.00660134z" transform="translate(156 3)"/><path d="m12.1890922.82201569c-2.3476248.09901014-4.26921294 1.81524663-4.73424956 4.06360581l-.01584264.0803785-.07748789-.05165738c-.58491146-.4115018-1.0800988-1.0259005-1.57997201-1.91352318-.87634717-1.55612587-3.14879292-1.45838424-3.88828772.16724165-.58926717 1.29538162-.89849699 2.71029035-.89849699 4.16527224l.00551683.33587322c.04338816 1.31947744.34178238 2.59397925.86259981 3.76227415l.17312797.3685193-.07104008.0357496c-1.22165426.6498725-1.58816667 2.3756818-.51795203 3.4595231 1.81149765 1.8345628 4.26187271 2.8872272 6.87283228 2.8872272l.27332831-.0038207c5.26636682-.1474087 9.47179642-4.54152 9.47179642-9.91677444l-.0069649-.33790476 1.50568-1.54429003.1068642-.11735372c1.1846092-1.39285187.20635-3.5875469-1.6703507-3.58771326l-1.7021935-.00064299-.0897593-.10830271c-.9424148-1.09073994-2.3161363-1.74819716-3.8045831-1.74819716zm.2145654 2.17798431c1.0436256 0 1.9573204.56920751 2.4607274 1.42076061.0326205.03207975.0587188.06604707.0781128.10193228.0593371.10979326.1161422.22121877.1703345.33419404l2.8871677.00025593-2.1998305 2.25923108c.0542102.37379443.0822955.75630668.0822955 1.14553082 0 4.27363204-3.3859024 7.73809524-7.56262483 7.73809524-2.07428579 0-3.95352265-.85448-5.31984017-2.2381944.87451872-.122222 1.70143917-.4394487 2.454167-.8945527-1.40501379-1.4049547-2.27691174-3.36525329-2.27691174-5.53391957 0-1.16529317.25173907-2.27042532.70260754-3.26156612 1.1204296 1.98954197 2.50143687 3.27208712 4.80607045 3.63902497.52952276 0 .80985834-.52272306.84100674-1.56816918l.00292016-.20214681c0-1.62398016 1.28664295-2.94047619 2.87379745-2.94047619z"/></g><g transform="translate(80 1)"><path d="m13.0408165 0c2.7388814 0 4.9591835 2.2203021 4.9591835 4.95918354v8.08163296c0 2.7388814-2.2203021 4.9591835-4.9591835 4.9591835h-8.08163296c-2.73888144 0-4.95918354-2.2203021-4.95918354-4.9591835v-8.08163296c0-2.73888144 2.2203021-4.95918354 4.95918354-4.95918354zm0 2.24999994h-8.08163296c-1.44082446 0-2.61894737 1.12475904-2.7042393 2.54414769l-.0049443.16503591v8.08163296c0 1.4408244 1.12475904 2.6189473 2.54414769 2.7042393l.16503591.0049441h8.08163296c1.4408244 0 2.6189473-1.1247589 2.7042393-2.5441475l.0049441-.1650359v-8.08163296c0-1.44082446-1.1247589-2.61894737-2.5441475-2.7042393z" fill-rule="nonzero"/><circle cx="5.175" cy="5.175" r="1"/><path d="m5.17499986 7.19999981c.3727922 0 .67499999.30220779.67499999.67499998v4.94999991c0 .3727922-.30220779.6749999-.67499999.6749999-.37279219 0-.67499998-.3022077-.67499998-.6749999v-4.94999991c0-.37279219.30220779-.67499998.67499998-.67499998z"/><path d="m10.3499997 7.19999981c1.7396969 0 3.1499999 1.37000863 3.1499999 3.05999989v2.4988235c0 .4093404-.331836.7411764-.7411764.7411764-.4093405 0-.7411765-.331836-.7411765-.7411764v-2.4988235c0-.89470124-.746631-1.61999993-1.667647-1.61999993-.89470125 0-1.62484001.68444513-1.66583185 1.54373913l-.00181514.0762608v2.4988235c0 .4093404-.331836.7411764-.74117645.7411764s-.74117645-.331836-.74117645-.7411764v-2.4988235c0-1.68999126 1.410303-3.05999989 3.14999989-3.05999989z" fill-rule="nonzero"/></g><g transform="translate(197 1)"><path d="m13.0408165 0c2.7388814 0 4.9591835 2.2203021 4.9591835 4.95918354v8.08163296c0 2.7388814-2.2203021 4.9591835-4.9591835 4.9591835h-8.08163296c-2.73888144 0-4.95918354-2.2203021-4.95918354-4.9591835v-8.08163296c0-2.73888144 2.2203021-4.95918354 4.95918354-4.95918354zm0 2.24999994h-8.08163296c-1.44082446 0-2.61894737 1.12475904-2.7042393 2.54414769l-.0049443.16503591v8.08163296c0 1.4408244 1.12475904 2.6189473 2.54414769 2.7042393l.16503591.0049441h8.08163296c1.4408244 0 2.6189473-1.1247589 2.7042393-2.5441475l.0049441-.1650359v-8.08163296c0-1.44082446-1.1247589-2.61894737-2.5441475-2.7042393zm-4.04081674 2.47499993c2.36101724 0 4.27499984 1.91398265 4.27499984 4.27499989s-1.9139826 4.27499984-4.27499984 4.27499984-4.27499989-1.9139826-4.27499989-4.27499984 1.91398265-4.27499989 4.27499989-4.27499989zm0 1.34999997c-1.61543285 0-2.92499992 1.30956707-2.92499992 2.92499992 0 1.61543284 1.30956707 2.92499994 2.92499992 2.92499994 1.61543284 0 2.92499994-1.3095671 2.92499994-2.92499994 0-1.61543285-1.3095671-2.92499992-2.92499994-2.92499992z" fill-rule="nonzero"/><circle cx="12.825" cy="4.725" r="1.125"/></g><g fill-rule="nonzero" transform="translate(116)"><path d="m4.2688279.87499068.12191414.00579765c1.26097518.12841081 2.69553152.68489917 4.33560967 1.65827618l.3546027.21495766.33204559.20897783.34898591-.05422579c.40831309-.05572254.86059599-.09261277 1.35707939-.11101487l.3806538-.01034043.3972505-.00343963c.8142229 0 1.5162812.03806966 2.1061781.11645751l.2459459.03606981.1479064.0254934c.5373358-.33565958 1.057663-.63131866 1.5655455-.88863049l.3786497-.1858196.3743865-.17157888c.8447379-.36481565 1.4609342-.58650293 1.8791845-.66932506l.1195673-.02068495.5595959-.12284544c.5263958-.11555717 1.0607993.15842815 1.2742357.65329265.3763765.87265023.6240685 1.81591801.7434366 2.80816039l.069675.70816873c.0219962.26939258.0310915.5083849.029344.72941459l-.0052855.21550279-.0103352.17734527.0666804.07902772c.8518377 1.06464945 1.3412941 2.30008722 1.4566721 3.68003769l.0199799.32100349.006667.3260623c0 1.1280273-.1359029 2.1556606-.4145527 3.0891621-.2821101.925366-.6422824 1.7003091-1.0921772 2.3253967-.4456738.61154-.9911132 1.1455351-1.6326469 1.6019174-.6083344.434943-1.1918978.7636079-1.7510768.9833146-.5359732.2087468-1.1309132.3667195-1.7965532.4789285-.6254643.1033744-1.1006469.1630622-1.4730875.1819025l-.508235.0151931-.5051551.005155-1.2009517.035663-.4657049.0066843-.5541336-.0016889-.3705462-.0071707-.8479673-.0280492-.79575427-.0105132-.49235417-.0158546c-.20576091-.0103844-.44806451-.0342161-.73468789-.0720287l-.22339901-.0309892-.49957417-.0779071c-.65886397-.1074231-1.25024568-.2656127-1.80052794-.4799338-.55912885-.2187246-1.14374265-.5479811-1.74574533-.980021-.64555443-.4575519-1.19182538-.9917734-1.64184838-1.6093067-.44727491-.6204445-.80582292-1.3925903-1.09066864-2.3269956-.27658371-.9266468-.41265147-1.9560698-.41265147-3.0828585 0-1.53484488.43543435-2.90675704 1.29217038-4.08026022l.19002964-.24841517.06579995-.07845581-.01012547-.14344485c-.01302528-.23664707-.01233345-.48462281.00501292-.77193205l.0161784-.22329455.02269924-.24067006c.09882281-1.17063631.35952964-2.25633668.78492893-3.25539369.17697834-.41563644.58304548-.68133426 1.02713388-.68427412zm.7411721 2.41600932-.01606211.05443733c-.1179761.41819979-.20490453.85876473-.26093755 1.32523565l-.05411535.54164306c-.0297964.34392223-.03112406.57988091-.01337994.80404156l.04125385.3943717.00713616.11238583c.01290866.30535906-.09897712.60282785-.3099238.82398907-.85720991.89871803-1.27897129 1.96520119-1.27897129 3.254027 0 .9181192.1076099 1.7322438.31676006 2.4330332.21552367.706952.4718213 1.258898.75832786 1.6563557.30089448.4128782.67181038.7756126 1.12653537 1.0979334.46317764.3323908.88629209.5706904 1.2574176.7158716.39820334.1550892.83740033.2725707 1.34688111.3556406l.38464963.0606698c.35602429.0530728.62662368.0835431.81585882.0931059l.43485016.0138512.53705362.0048859 1.1154182.0338504.3403128.0066145.3385408.0020614.4594839-.0038044 1.0885321-.0332765.7646958-.010461.4538169-.0134121c.1105464-.0056159.2471989-.0180552.4102071-.0375327l.3612313-.0484031.4319564-.0675536c.5172216-.0871942.9648158-.2060426 1.3473179-.3550112.3718758-.1461171.7961775-.3850853 1.2643262-.7197953.4490005-.3194184.8201595-.6827898 1.1168074-1.0898071.2895361-.4023058.5474981-.9573344.7603571-1.6554797.2112336-.7077022.3186614-1.5200199.3186614-2.4393369 0-1.28669415-.4223278-2.35219676-1.2816742-3.25474372-.2099071-.22045938-.3215154-.51657152-.3093452-.82073463l.0047268-.06664887.0400612-.39284897c.0184399-.23512975.0172482-.4983321-.0150205-.86821807l-.0537724-.54199163c-.0409584-.34372167-.0997984-.67524013-.1764462-.99469086l-.090529-.34025445-.0397066.01294262c-.1424819.04610362-.3127049.10758726-.5094793.18451782l-.4285981.17447687-.1989767.0848843c-.742316.32794748-1.5387837.76939216-2.39202 1.32529231-.2686112.17500551-.5991276.22709791-.9085452.14319504-.4987525-.13524366-1.3208031-.21232974-2.4187045-.21232974-1.0503486 0-1.8714877.07672943-2.44263612.21708614-.30604368.07520862-.62960133.01859949-.89193011-.15605069-1.17942856-.78522608-2.21377119-1.33458938-3.09515326-1.65492624l-.2365786-.0816914zm3.44013529 3.88660045.62172166.03524237.70363304.04825646.38093771.02915526c.6011283.04765786 1.0935202.07306672 1.5434891.07935379l.2217563.00156453c.2543137 0 .6662632-.01888443 1.2114379-.05602007l.9146298-.06931269c1.1150374-.09125992 1.9539518-.09125992 2.5391723.00708414.6570511.11041493 1.2418611.40446274 1.7073603.85631229.8958422.82005379 1.3521547 1.86521449 1.3521547 3.09003997 0 2.0150661-.7222213 3.4450894-2.1636233 4.1461922-1.2268506.5899799-2.9284306.8908744-5.1420407.9242323l-.5038142.0031247c-2.41875252 0-4.25660152-.3021291-5.53823543-.9286715-1.43551034-.6982445-2.1451431-2.12156-2.1451431-4.1448777 0-1.24359826.44194571-2.28939116 1.30850341-3.08976101.39815304-.36491723.89369635-.61894137 1.47536507-.76033651.53857253-.12878608 1.03082579-.18613803 1.51269544-.17157853zm-.05383467 1.34885909c-.34248143-.01025267-.71699693.03338177-1.14243259.13510913-.36484481.08869149-.65535821.23761373-.87773095.44141714-.58326541.53872006-.87256574 1.22330239-.87256574 2.09629069 0 1.547923.46663665 2.4838595 1.38684742 2.9314594 1.00295021.4903032 2.52297077.7593263 4.55877404.7892902h.8589678c1.9120877-.0279786 3.3714031-.2653976 4.3891868-.7002723l.197673-.0896041c.9252487-.4500489 1.4014077-1.3928604 1.4014077-2.9308732 0-.8476045-.2983535-1.53096829-.9278596-2.10759826-.2823705-.27385367-.6171402-.4421789-1.0053808-.50742126-.410146-.06892346-1.0600526-.07518923-1.9356767-.01348741l-1.0594933.08132812-.6590611.04193836c-.3283914.01800546-.5927197.02713677-.7872835.02713677-.4578109 0-.9424547-.01868413-1.5162905-.05860686l-1.25039547-.09163549z"/><path d="m15.4560341 9.96304327c.3820197 0 .6990148.17076213.9753695.50861403.2722906.3415242.418596.7564945.418596 1.2540916 0 .4939249-.1442734.9144036-.418596 1.2504194-.2743227.3415242-.5933498.508614-.9753695.508614-.3962438 0-.7416871-.168926-1.0160098-.508614-.2722906-.3360158-.418596-.7564945-.418596-1.2504194 0-.4975971.1442733-.9125674.418596-1.2540916.2702586-.3396881.617734-.50861403 1.0160098-.50861403"/><path d="m8.38560644 9.96304327c.38174545 0 .69851295.17076213.97466923.50861403.27209517.3415242.41829555.7564945.41829555 1.2540916 0 .4939249-.14416982.9144036-.41829555 1.2504194-.27209516.3415242-.59292378.508614-.97466923.508614-.39595938 0-.74115474-.168926-1.01731102-.508614-.27209517-.3378519-.41829555-.7564945-.41829555-1.2504194 0-.4975971.14416982-.9125674.41829555-1.2540916.27412572-.3396881.61932108-.50861403 1.01731102-.50861403"/></g></g></svg>