<svg height="450" viewBox="0 0 167 450" width="167" xmlns="http://www.w3.org/2000/svg"><path d="m-104.510629 299.894901.478595-62.901867c0-13.86 4.6199999-24.2 20.4599999-24.2s19.58 12.32 19.58 25.52l-.5118178 61.454375c-.036796 4.418125 3.5149727 8.029552 7.9330975 8.066348.0222079.000185.0444164.000277.066625.000277h20.4979627c4.3928641 0 7.9639712-3.542151 7.9997349-7.934869l.5343977-65.638131c-.005-15.761-.316-29.565-11.44-42.368-7.92-9.24-20.9-13.42-33.22-13.42s-25.08 3.96-31.4599999 15.4c-.243005 0-.44-.196995-.44-.44v-43.48c0-4.418278-3.581722-8-8-8h-20.544991c-4.408506 0-7.986168 3.566485-7.999961 7.97497l-.46894 149.881c-.013823 4.418257 3.556675 8.011167 7.974931 8.024991.008343.000026.016687.000039.02503.000039h20.535568c4.394526 0 7.966333-3.544734 7.999768-7.939133zm141.7085949 7.818133c27.5 0 49.06-17.82 59.62-42.24h-37.4c-5.94 7.48-12.32 11.44-22.22 11.44-14.3 0-26.4-8.58-28.60000005-23.1h91.52000015c.66-3.3.88-6.38.88-9.68 0-36.74-27.0600001-66.66-64.4600001-66.66-35.86000005 0-64.02 29.92-64.02 65.56s29.03999995 64.68 64.68 64.68zm27.28-78.54h-55.44000005c2.86000005-13.2 14.52000005-20.9 27.72000005-20.9s24.86 7.7 27.72 20.9zm71.6700001 70.78v-150c0-4.418278-3.581722-8-8-8h-20c-4.418278 0-8 3.581722-8 8v150c0 4.418278 3.581722 8 8 8h20c4.418278 0 8-3.581722 8-8zm40.513 0v-150c0-4.418278-3.581722-8-8-8h-20c-4.418278 0-8 3.581722-8 8v150c0 4.418278 3.581722 8 8 8h20c4.418278 0 8-3.581722 8-8zm65.369 7.54c37.4 0 65.78-27.5 65.78-64.9s-28.38-64.9-65.78-64.9-65.78 27.5-65.78 64.9 28.38 64.9 65.78 64.9zm0-34.1c-16.94 0-29.26-14.3-29.26-30.8s12.32-30.8 29.26-30.8 29.26 14.3 29.26 30.8-12.32 30.8-29.26 30.8z" transform="matrix(0 1 -1 0 308.335034 141.571034)"/></svg>