<svg height="416" viewBox="0 0 168 416" width="168" xmlns="http://www.w3.org/2000/svg"><path d="m-86.980348 283.529325.195549-63.784526c0-13.86 4.62-24.2 20.46-24.2s19.58 12.32 19.58 25.52l-.2303623 62.410471c-.0163081 4.418248 3.5521691 8.013166 7.970417 8.029474.0098428.000037.0196856.000055.0295285.000055h20.5004307c4.4065394 0 7.9833803-3.563422 7.9999434-7.96993l.2500427-66.52207c-.005-15.761-.316-29.565-11.44-42.368-7.92-9.24-20.9-13.42-33.22-13.42s-25.08 3.96-31.46 15.4c-.2430053 0-.44-.196995-.44-.44v-43.48c0-4.418278-3.581722-8-8-8h-20.529587c-4.414532 0-7.994701 3.575878-7.999994 7.990408l-.180815 150.8c-.005298 4.418274 3.572127 8.004289 7.990402 8.009586.003197.000004.006395.000006.009592.000006h20.5148906c4.408703 0 7.9864464-3.566792 7.9999624-7.975474zm142.406549 7.715474c37.4 0 65.78-27.5 65.78-64.9s-28.38-64.9-65.78-64.9-65.78 27.5-65.78 64.9 28.38 64.9 65.78 64.9zm0-34.1c-16.94 0-29.26-14.3-29.26-30.8s12.32-30.8 29.26-30.8 29.26 14.3 29.26 30.8-12.32 30.8-29.26 30.8zm102.65 26.56v-151c0-4.418278-3.581722-8-8-8h-21c-4.418278 0-8 3.581722-8 8v151c0 4.418278 3.581722 8 8 8h21c4.418278 0 8-3.581722 8-8zm60.451 7.98c13.2 0 29.04-4.84 35.64-17.38h.44l-.059568 9.147908c-.028769 4.418184 3.529554 8.023153 7.947739 8.051922.017363.000113.034728.00017.052092.00017h20.456107c4.415008 0 7.995374-3.57662 7.999996-7.991626l.115251-110.1c.004625-4.418275-3.573346-8.003745-7.991621-8.00837-.002792-.000003-.005583-.000004-.008375-.000004h-20.511621c-4.418278 0-8 3.581722-8 8v4.98h-.44c-7.26-12.1-22.22-17.16-35.64-17.16-36.74 0-61.38 28.82-61.38 65.12s23.76 65.34 61.38 65.34zm5.5-34.1c-17.16 0-30.36-13.42-30.36-30.8s12.32-31.46 30.14-31.46 30.8 13.42 30.8 31.02-12.76 31.24-30.58 31.24z" transform="matrix(0 1 -1 0 292.020799 124.388799)"/></svg>