<svg fill="none" height="370" viewBox="0 0 369 370" width="369" xmlns="http://www.w3.org/2000/svg" xmlns:xlink="http://www.w3.org/1999/xlink"><filter id="a" color-interpolation-filters="sRGB" filterUnits="userSpaceOnUse" height="455.428" width="452.264" x="-45.8553" y="123"><feFlood flood-opacity="0" result="BackgroundImageFix"/><feColorMatrix in="SourceAlpha" type="matrix" values="0 0 0 0 0 0 0 0 0 0 0 0 0 0 0 0 0 0 127 0"/><feOffset dy="135.02"/><feGaussianBlur stdDeviation="65.9277"/><feColorMatrix type="matrix" values="0 0 0 0 0 0 0 0 0 0 0 0 0 0 0 0 0 0 0.2 0"/><feBlend in2="BackgroundImageFix" mode="multiply" result="effect1_dropShadow"/><feColorMatrix in="SourceAlpha" type="matrix" values="0 0 0 0 0 0 0 0 0 0 0 0 0 0 0 0 0 0 127 0"/><feOffset dy="65.4002"/><feGaussianBlur stdDeviation="32.7001"/><feColorMatrix type="matrix" values="0 0 0 0 0 0 0 0 0 0 0 0 0 0 0 0 0 0 0.2 0"/><feBlend in2="effect1_dropShadow" mode="multiply" result="effect2_dropShadow"/><feColorMatrix in="SourceAlpha" type="matrix" values="0 0 0 0 0 0 0 0 0 0 0 0 0 0 0 0 0 0 127 0"/><feOffset dy="33.755"/><feGaussianBlur stdDeviation="16.8775"/><feColorMatrix type="matrix" values="0 0 0 0 0 0 0 0 0 0 0 0 0 0 0 0 0 0 0.2 0"/><feBlend in2="effect2_dropShadow" mode="multiply" result="effect3_dropShadow"/><feColorMatrix in="SourceAlpha" type="matrix" values="0 0 0 0 0 0 0 0 0 0 0 0 0 0 0 0 0 0 127 0"/><feOffset dy="16.8775"/><feGaussianBlur stdDeviation="8.43874"/><feColorMatrix type="matrix" values="0 0 0 0 0 0 0 0 0 0 0 0 0 0 0 0 0 0 0.2 0"/><feBlend in2="effect3_dropShadow" mode="multiply" result="effect4_dropShadow"/><feColorMatrix in="SourceAlpha" type="matrix" values="0 0 0 0 0 0 0 0 0 0 0 0 0 0 0 0 0 0 127 0"/><feOffset dy="8.43874"/><feGaussianBlur stdDeviation="4.21937"/><feColorMatrix type="matrix" values="0 0 0 0 0 0 0 0 0 0 0 0 0 0 0 0 0 0 0.2 0"/><feBlend in2="effect4_dropShadow" mode="multiply" result="effect5_dropShadow"/><feBlend in="SourceGraphic" in2="effect5_dropShadow" mode="normal" result="shape"/></filter><filter id="b" color-interpolation-filters="sRGB" filterUnits="userSpaceOnUse" height="190.663" width="188.553" x="86" y="120.89"><feFlood flood-opacity="0" result="BackgroundImageFix"/><feBlend in="SourceGraphic" in2="BackgroundImageFix" mode="normal" result="shape"/><feColorMatrix in="SourceAlpha" result="hardAlpha" type="matrix" values="0 0 0 0 0 0 0 0 0 0 0 0 0 0 0 0 0 0 127 0"/><feOffset dy="-3.16453"/><feGaussianBlur stdDeviation="1.05484"/><feComposite in2="hardAlpha" k2="-1" k3="1" operator="arithmetic"/><feColorMatrix type="matrix" values="0 0 0 0 0 0 0 0 0 0 0 0 0 0 0 0 0 0 0.35 0"/><feBlend in2="shape" mode="normal" result="effect1_innerShadow"/></filter><filter id="c" color-interpolation-filters="sRGB" filterUnits="userSpaceOnUse" height="147.149" width="143.37" x="94.4077" y="153.227"><feFlood flood-opacity="0" result="BackgroundImageFix"/><feGaussianBlur in="BackgroundImage" stdDeviation="3.58097"/><feComposite in2="SourceAlpha" operator="in" result="effect1_backgroundBlur"/><feBlend in="SourceGraphic" in2="effect1_backgroundBlur" mode="normal" result="shape"/></filter><filter id="d" color-interpolation-filters="sRGB" filterUnits="userSpaceOnUse" height="126.447" width="160.149" x="78.9419" y="152.057"><feFlood flood-opacity="0" result="BackgroundImageFix"/><feGaussianBlur in="BackgroundImage" stdDeviation="3.58097"/><feComposite in2="SourceAlpha" operator="in" result="effect1_backgroundBlur"/><feBlend in="SourceGraphic" in2="effect1_backgroundBlur" mode="normal" result="shape"/></filter><filter id="e" color-interpolation-filters="sRGB" filterUnits="userSpaceOnUse" height="102.108" width="170.995" x="67.337" y="151.547"><feFlood flood-opacity="0" result="BackgroundImageFix"/><feGaussianBlur in="BackgroundImage" stdDeviation="3.58097"/><feComposite in2="SourceAlpha" operator="in" result="effect1_backgroundBlur"/><feBlend in="SourceGraphic" in2="effect1_backgroundBlur" mode="normal" result="shape"/></filter><filter id="f" color-interpolation-filters="sRGB" filterUnits="userSpaceOnUse" height="75.7723" width="175.149" x="63.2693" y="151.602"><feFlood flood-opacity="0" result="BackgroundImageFix"/><feGaussianBlur in="BackgroundImage" stdDeviation="3.58097"/><feComposite in2="SourceAlpha" operator="in" result="effect1_backgroundBlur"/><feBlend in="SourceGraphic" in2="effect1_backgroundBlur" mode="normal" result="shape"/></filter><filter id="g" color-interpolation-filters="sRGB" filterUnits="userSpaceOnUse" height="96.9441" width="172.377" x="65.9748" y="127.833"><feFlood flood-opacity="0" result="BackgroundImageFix"/><feGaussianBlur in="BackgroundImage" stdDeviation="3.58097"/><feComposite in2="SourceAlpha" operator="in" result="effect1_backgroundBlur"/><feBlend in="SourceGraphic" in2="effect1_backgroundBlur" mode="normal" result="shape"/></filter><filter id="h" color-interpolation-filters="sRGB" filterUnits="userSpaceOnUse" height="131.223" width="180.14" x="59.1096" y="93.4704"><feFlood flood-opacity="0" result="BackgroundImageFix"/><feGaussianBlur in="BackgroundImage" stdDeviation="3.58097"/><feComposite in2="SourceAlpha" operator="in" result="effect1_backgroundBlur"/><feBlend in="SourceGraphic" in2="effect1_backgroundBlur" mode="normal" result="shape"/></filter><filter id="i" color-interpolation-filters="sRGB" filterUnits="userSpaceOnUse" height="150.146" width="154.418" x="77.7898" y="67.3691"><feFlood flood-opacity="0" result="BackgroundImageFix"/><feBlend in="SourceGraphic" in2="BackgroundImageFix" mode="normal" result="shape"/><feColorMatrix in="SourceAlpha" result="hardAlpha" type="matrix" values="0 0 0 0 0 0 0 0 0 0 0 0 0 0 0 0 0 0 127 0"/><feOffset dx="-40.5844" dy="-14.3239"/><feGaussianBlur stdDeviation="5.96829"/><feComposite in2="hardAlpha" k2="-1" k3="1" operator="arithmetic"/><feColorMatrix type="matrix" values="0 0 0 0 0 0 0 0 0 0 0 0 0 0 0 0 0 0 0.09 0"/><feBlend in2="shape" mode="normal" result="effect1_innerShadow"/></filter><filter id="j" color-interpolation-filters="sRGB" filterUnits="userSpaceOnUse" height="144.504" width="154.578" x="142.008" y="151.415"><feFlood flood-opacity="0" result="BackgroundImageFix"/><feBlend in="SourceGraphic" in2="BackgroundImageFix" mode="normal" result="shape"/><feColorMatrix in="SourceAlpha" result="hardAlpha" type="matrix" values="0 0 0 0 0 0 0 0 0 0 0 0 0 0 0 0 0 0 127 0"/><feOffset/><feGaussianBlur stdDeviation="2.63711"/><feComposite in2="hardAlpha" k2="-1" k3="1" operator="arithmetic"/><feColorMatrix type="matrix" values="0 0 0 0 1 0 0 0 0 1 0 0 0 0 1 0 0 0 0.5 0"/><feBlend in2="shape" mode="overlay" result="effect1_innerShadow"/><feColorMatrix in="SourceAlpha" result="hardAlpha" type="matrix" values="0 0 0 0 0 0 0 0 0 0 0 0 0 0 0 0 0 0 127 0"/><feOffset/><feGaussianBlur stdDeviation="3.69195"/><feComposite in2="hardAlpha" k2="-1" k3="1" operator="arithmetic"/><feColorMatrix type="matrix" values="0 0 0 0 0.815686 0 0 0 0 0.509804 0 0 0 0 0.196078 0 0 0 0.28 0"/><feBlend in2="effect1_innerShadow" mode="normal" result="effect2_innerShadow"/><feColorMatrix in="SourceAlpha" result="hardAlpha" type="matrix" values="0 0 0 0 0 0 0 0 0 0 0 0 0 0 0 0 0 0 127 0"/><feOffset dx="-4.77316"/><feGaussianBlur stdDeviation=".791132"/><feComposite in2="hardAlpha" k2="-1" k3="1" operator="arithmetic"/><feColorMatrix type="matrix" values="0 0 0 0 0.815686 0 0 0 0 0.509804 0 0 0 0 0.196078 0 0 0 0.6 0"/><feBlend in2="effect2_innerShadow" mode="normal" result="effect3_innerShadow"/><feColorMatrix in="SourceAlpha" result="hardAlpha" type="matrix" values="0 0 0 0 0 0 0 0 0 0 0 0 0 0 0 0 0 0 127 0"/><feOffset dx="-10.0474"/><feGaussianBlur stdDeviation="5.16345"/><feComposite in2="hardAlpha" k2="-1" k3="1" operator="arithmetic"/><feColorMatrix type="matrix" values="0 0 0 0 0.845833 0 0 0 0 0.517002 0 0 0 0 0.17974 0 0 0 1 0"/><feBlend in2="effect3_innerShadow" mode="normal" result="effect4_innerShadow"/></filter><filter id="k" color-interpolation-filters="sRGB" filterUnits="userSpaceOnUse" height="89.2225" width="94.5231" x="172.89" y="150.36"><feFlood flood-opacity="0" result="BackgroundImageFix"/><feBlend in="SourceGraphic" in2="BackgroundImageFix" mode="normal" result="shape"/><feColorMatrix in="SourceAlpha" result="hardAlpha" type="matrix" values="0 0 0 0 0 0 0 0 0 0 0 0 0 0 0 0 0 0 127 0"/><feOffset/><feGaussianBlur stdDeviation="5.53792"/><feComposite in2="hardAlpha" k2="-1" k3="1" operator="arithmetic"/><feColorMatrix type="matrix" values="0 0 0 0 0.815686 0 0 0 0 0.509804 0 0 0 0 0.196078 0 0 0 0.25 0"/><feBlend in2="shape" mode="normal" result="effect1_innerShadow"/><feColorMatrix in="SourceAlpha" result="hardAlpha" type="matrix" values="0 0 0 0 0 0 0 0 0 0 0 0 0 0 0 0 0 0 127 0"/><feOffset dx="-1.08121" dy="-1.05484"/><feGaussianBlur stdDeviation="1.20779"/><feComposite in2="hardAlpha" k2="-1" k3="1" operator="arithmetic"/><feColorMatrix type="matrix" values="0 0 0 0 0.815686 0 0 0 0 0.509804 0 0 0 0 0.196078 0 0 0 0.9 0"/><feBlend in2="effect1_innerShadow" mode="normal" result="effect2_innerShadow"/><feColorMatrix in="SourceAlpha" result="hardAlpha" type="matrix" values="0 0 0 0 0 0 0 0 0 0 0 0 0 0 0 0 0 0 127 0"/><feOffset dx="-6.35543"/><feGaussianBlur stdDeviation="5.16345"/><feComposite in2="hardAlpha" k2="-1" k3="1" operator="arithmetic"/><feColorMatrix type="matrix" values="0 0 0 0 0.815686 0 0 0 0 0.509804 0 0 0 0 0.196078 0 0 0 1 0"/><feBlend in2="effect2_innerShadow" mode="normal" result="effect3_innerShadow"/></filter><filter id="l" color-interpolation-filters="sRGB" filterUnits="userSpaceOnUse" height="72.6831" width="72.6831" x="186.987" y="159.157"><feFlood flood-opacity="0" result="BackgroundImageFix"/><feBlend in="SourceGraphic" in2="BackgroundImageFix" mode="normal" result="shape"/><feGaussianBlur result="effect1_foregroundBlur" stdDeviation="2.3734"/></filter><filter id="m" color-interpolation-filters="sRGB" filterUnits="userSpaceOnUse" height="70.9382" width="9.49358" x="220.624" y="214.903"><feFlood flood-opacity="0" result="BackgroundImageFix"/><feBlend in="SourceGraphic" in2="BackgroundImageFix" mode="normal" result="shape"/><feGaussianBlur result="effect1_foregroundBlur" stdDeviation="2.10968"/></filter><linearGradient id="n" gradientUnits="userSpaceOnUse" x1="86" x2="274.553" y1="217.277" y2="217.277"><stop offset="0" stop-color="#fcfcfc"/><stop offset="1" stop-color="#e1e1e1"/></linearGradient><linearGradient id="o" gradientUnits="userSpaceOnUse" x1="373.747" x2="394.48" y1="226.177" y2="196.689"><stop offset="0" stop-color="#367321"/><stop offset="1" stop-color="#478f2f"/></linearGradient><linearGradient id="p" gradientUnits="userSpaceOnUse" x1="393.439" x2="376.797" y1="206.435" y2="234.736"><stop offset="0" stop-color="#ffa448"/><stop offset="1" stop-color="#d08030"/></linearGradient><linearGradient id="q" gradientUnits="userSpaceOnUse" x1="353.935" x2="395.615" y1="233.547" y2="219.665"><stop offset="0" stop-color="#d84000"/><stop offset="1" stop-color="#dc5717"/></linearGradient><linearGradient id="r" gradientUnits="userSpaceOnUse" x1="377.184" x2="348.8" y1="219.825" y2="243.56"><stop offset="0" stop-color="#da0101"/><stop offset="1" stop-color="#c82535"/></linearGradient><linearGradient id="s" gradientUnits="userSpaceOnUse" x1="375.777" x2="365.658" y1="232.718" y2="262.154"><stop offset="0" stop-color="#671a90"/><stop offset="1" stop-color="#691a92"/></linearGradient><linearGradient id="t" gradientUnits="userSpaceOnUse" x1="387.197" x2="362.948" y1="233.13" y2="276.06"><stop offset="0" stop-color="#3043c7"/><stop offset="1" stop-color="#2535a4"/></linearGradient><linearGradient id="u" gradientUnits="userSpaceOnUse" x1="372.241" x2="301.564" y1="223.991" y2="255.265"><stop offset=".0001" stop-color="#2ea0df"/><stop offset="1" stop-color="#296fc7"/></linearGradient><linearGradient id="v" gradientUnits="userSpaceOnUse" x1="202.186" x2="265.038" y1="258.324" y2="192.092"><stop offset="0" stop-color="#fff" stop-opacity=".24"/><stop offset="1" stop-color="#fff" stop-opacity="0"/></linearGradient><mask id="w" height="370" maskUnits="userSpaceOnUse" width="369" x="0" y="0"><rect fill="#e2e2e2" height="370" rx="16" width="369"/></mask><mask id="x" height="189" maskUnits="userSpaceOnUse" width="189" x="86" y="123"><path d="m86 196.577c0-26.026 0-39.038 5.1452-48.943 4.3359-8.347 11.1418-15.153 19.4888-19.489 9.905-5.145 22.917-5.145 48.943-5.145h41.399c26.026 0 39.039 0 48.944 5.145 8.346 4.336 15.152 11.142 19.488 19.489 5.145 9.905 5.145 22.917 5.145 48.943v41.399c0 26.026 0 39.039-5.145 48.944-4.336 8.346-11.142 15.152-19.488 19.488-9.905 5.145-22.918 5.145-48.944 5.145h-41.399c-26.026 0-39.038 0-48.943-5.145-8.347-4.336-15.1529-11.142-19.4888-19.488-5.1452-9.905-5.1452-22.918-5.1452-48.944z" fill="#c4c4c4"/></mask><g mask="url(#w)"><g filter="url(#a)"><g mask="url(#x)"><path d="m0 0h188.553v188.553h-188.553z" fill="#f18d8d" transform="translate(86 123)"/><g filter="url(#b)"><rect fill="url(#n)" height="188.553" rx="45.3582" width="188.553" x="86" y="123"/></g><g filter="url(#c)"><rect fill="url(#o)" height="58.7757" rx="29.3879" transform="matrix(-.68835458 .72537437 -.72537437 -.68835458 546.758758 142.471899)" width="160.86" x="242.774" y="188.689"/></g><g filter="url(#d)"><rect fill="url(#p)" height="58.7757" rx="29.3879" transform="matrix(-.85264016 .52249856 -.52249856 -.85264016 553.715333 240.462125)" width="160.86" x="242.949" y="198.313"/></g><g filter="url(#e)"><rect fill="url(#q)" height="58.7757" rx="29.3879" transform="matrix(-.95881973 .28401534 -.28401534 -.95881973 525.841799 339.628568)" width="160.86" x="238.299" y="207.936"/></g><g filter="url(#f)"><rect fill="url(#r)" height="58.7757" rx="29.3879" transform="matrix(-.99965732 .02617695 -.02617695 -.99965732 469.624636 427.374277)" width="160.86" x="232.015" y="216.761"/></g><g filter="url(#g)"><rect fill="url(#s)" height="58.7757" rx="29.3879" transform="matrix(-.97236992 -.23344536 .23344536 -.97236992 388.632711 493.311713)" width="160.86" x="223.51" y="223.657"/></g><g filter="url(#h)"><rect fill="url(#t)" height="58.7757" rx="29.3879" transform="matrix(-.87881711 -.47715876 .47715876 -.87881711 294.216519 530.695477)" width="180.564" x="214.498" y="227.987"/></g><g filter="url(#i)"><rect fill="url(#u)" height="58.7757" rx="29.3879" transform="matrix(-.72537437 -.68835458 .68835458 -.72537437 193.720488 536.634638)" width="174.172" x="203.908" y="229.674"/></g><circle cx="202.414" cy="188.735" fill="#d7dbe2" r="16.0963" transform="matrix(-.72537437 -.68835458 .68835458 -.72537437 219.323327 464.971135)"/><g clip-rule="evenodd" fill-rule="evenodd" filter="url(#j)"><path d="m235.356 224.936c0-.218-.007-.435-.022-.65 3.408-1.421 6.621-3.475 9.459-6.169 12.492-11.854 13.009-31.59 1.154-44.082-6.817-7.184-16.242-10.408-25.396-9.595l2.498 2.37c5.619 5.332 8.668 12.357 9.104 19.524.137.132.272.268.404.408 4.836 5.096 4.626 13.149-.471 17.985-2.447 2.323-5.534 3.475-8.674 3.494-3.429.02-6.791-1.308-9.312-3.965-4.836-5.096-4.625-13.149.471-17.985.985-.935 2.079-1.68 3.24-2.239-.784-2.575-2.225-4.988-4.317-6.972-3.191-3.029-7.299-4.493-11.375-4.418-.085.079-.17.158-.255.238-12.491 11.855-13.008 31.591-1.154 44.083 4.527 4.77 10.203 7.794 16.186 9.05v13.316c0 1.319-1.068 2.388-2.387 2.388h-7.44c-3.955 0-7.161 3.206-7.161 7.162 0 3.955 3.206 7.162 7.161 7.162h2.388c1.318 0 2.387 1.068 2.387 2.387v3.442c0 .736-.597 1.333-1.332 1.333-3.956 0-7.162 3.206-7.162 7.161 0 3.956 3.206 7.162 7.162 7.162h3.997c1.319 0 2.387 1.069 2.387 2.388v2.956c0 5.098 4.133 9.23 9.23 9.23 5.098 0 9.23-4.132 9.23-9.23z" fill="#ef8f2f"/><path d="m235.356 224.936c0-.218-.007-.435-.022-.65 3.408-1.421 6.621-3.475 9.459-6.169 12.492-11.854 13.009-31.59 1.154-44.082-6.817-7.184-16.242-10.408-25.396-9.595l2.498 2.37c5.619 5.332 8.668 12.357 9.104 19.524.137.132.272.268.404.408 4.836 5.096 4.626 13.149-.471 17.985-2.447 2.323-5.534 3.475-8.674 3.494-3.429.02-6.791-1.308-9.312-3.965-4.836-5.096-4.625-13.149.471-17.985.985-.935 2.079-1.68 3.24-2.239-.784-2.575-2.225-4.988-4.317-6.972-3.191-3.029-7.299-4.493-11.375-4.418-.085.079-.17.158-.255.238-12.491 11.855-13.008 31.591-1.154 44.083 4.527 4.77 10.203 7.794 16.186 9.05v13.316c0 1.319-1.068 2.388-2.387 2.388h-7.44c-3.955 0-7.161 3.206-7.161 7.162 0 3.955 3.206 7.162 7.161 7.162h2.388c1.318 0 2.387 1.068 2.387 2.387v3.442c0 .736-.597 1.333-1.332 1.333-3.956 0-7.162 3.206-7.162 7.161 0 3.956 3.206 7.162 7.162 7.162h3.997c1.319 0 2.387 1.069 2.387 2.388v2.956c0 5.098 4.133 9.23 9.23 9.23 5.098 0 9.23-4.132 9.23-9.23z" fill="url(#v)"/></g><g filter="url(#k)"><path clip-rule="evenodd" d="m232.153 186.334c.137.132.272.268.404.408 4.837 5.096 4.626 13.149-.471 17.985-2.447 2.323-5.534 3.475-8.674 3.494-3.429.021-6.79-1.308-9.312-3.965-4.836-5.096-4.625-13.149.471-17.985.985-.935 2.079-1.68 3.24-2.239-.784-2.575-2.225-4.988-4.317-6.972-3.191-3.029-7.299-4.493-11.375-4.418-.085.079-.17.158-.254.238-12.492 11.855-13.009 31.591-1.155 44.083 6.178 6.51 14.495 9.767 22.813 9.717 7.644-.046 15.288-2.886 21.27-8.563 12.492-11.854 13.009-31.59 1.154-44.082-6.817-7.184-16.241-10.408-25.395-9.595l2.497 2.37c5.62 5.332 8.668 12.357 9.104 19.524z" fill="#f69f46" fill-rule="evenodd"/></g><g filter="url(#l)" opacity=".7"><path clip-rule="evenodd" d="m228.799 174.372c3.829.988 7.435 3.027 10.358 6.107 8.295 8.741 7.934 22.553-.808 30.848-4.186 3.973-9.535 5.96-14.884 5.992-5.822.035-11.641-2.244-15.964-6.8-8.296-8.741-7.934-22.553.807-30.848 1.373-1.302 2.87-2.391 4.451-3.268-.145-.122-.292-.241-.441-.358-1.551.88-3.021 1.961-4.373 3.243-8.952 8.496-9.323 22.641-.827 31.594 4.427 4.666 10.389 7 16.35 6.965 5.478-.033 10.957-2.069 15.244-6.137 8.953-8.496 9.323-22.642.827-31.594-3.113-3.281-6.985-5.41-11.082-6.371.117.208.231.417.342.627z" fill="#fff" fill-rule="evenodd"/></g><g filter="url(#m)" opacity=".3"><path d="m225.371 219.122v62.5" stroke="#fff" stroke-width="1.05484"/></g><rect fill="#fcfcfc" fill-opacity=".01" height="188.553" rx="45.3582" width="188.553" x="86" y="123"/></g></g><path d="m106.457 83h9.813v-15.048h8.249c10.674 0 16.883-6.3683 16.883-15.6373 0-9.2237-6.096-15.7279-16.634-15.7279h-18.311zm9.813-22.912v-15.4786h6.617c5.666 0 8.408 3.0821 8.408 7.7053 0 4.6005-2.742 7.7733-8.363 7.7733zm43.492 22.912c14.142 0 22.708-8.7478 22.708-23.2519 0-14.4588-8.566-23.1613-22.572-23.1613h-16.589v46.4132zm-6.64-8.4079v-29.5975h6.255c8.702 0 13.303 4.4419 13.303 14.7535 0 10.3568-4.601 14.844-13.326 14.844zm57.328-24.657h9.405c-.136-8.2719-6.934-13.9829-17.269-13.9829-10.175 0-17.631 5.6204-17.586 14.0509-.023 6.8441 4.805 10.7648 12.646 12.6458l5.054 1.2691c5.053 1.2238 7.864 2.6742 7.886 5.8017-.022 3.3994-3.241 5.711-8.226 5.711-5.099 0-8.771-2.357-9.088-7.0028h-9.496c.25 10.0396 7.434 15.2293 18.697 15.2293 11.331 0 17.994-5.4164 18.017-13.9149-.023-7.728-5.847-11.8299-13.915-13.6429l-4.17-.9972c-4.034-.9292-7.411-2.4249-7.343-5.7563 0-2.9915 2.652-5.1898 7.456-5.1898 4.692 0 7.57 2.1303 7.932 5.779zm53.125 2.9008c-1.292-10.7194-9.405-16.8837-20.148-16.8837-12.26 0-21.62 8.6572-21.62 23.8412 0 15.1387 9.201 23.8412 21.62 23.8412 11.898 0 19.082-7.9093 20.148-16.4532l-9.927-.0453c-.929 4.9631-4.827 7.8186-10.062 7.8186-7.048 0-11.83-5.235-11.83-15.1613 0-9.6543 4.714-15.1614 11.898-15.1614 5.371 0 9.246 3.1048 9.994 8.2039zm-183.8256 54.1641h3.6627v-6.141h2.6729l3.2821 6.141h4.0433l-3.6796-6.733c1.9709-.8461 3.0621-2.5632 3.0621-4.9317 0-3.4427-2.2754-5.6589-6.2088-5.6589h-6.8347zm3.6627-9.0848v-5.2444h2.4699c2.1147 0 3.1382.9389 3.1382 2.6645 0 1.7171-1.0235 2.5799-3.1213 2.5799zm15.9459 9.3388c3.214 0 5.38-1.565 5.887-3.976l-3.332-.22c-.364.99-1.295 1.506-2.4958 1.506-1.8017 0-2.9436-1.193-2.9436-3.13v-.008h8.8474v-.99c0-4.4155-2.673-6.5979-6.1068-6.5979-3.8234 0-6.3018 2.7153-6.3018 6.7249 0 4.119 2.4446 6.691 6.4456 6.691zm-2.8844-8.0615c.0761-1.4803 1.2011-2.6645 2.7998-2.6645 1.5646 0 2.6476 1.1166 2.6556 2.6645zm14.3194 8.0185c2.098 0 3.189-1.209 3.688-2.292h.153v2.081h3.552v-17.3236h-3.595v6.5132h-.11c-.482-1.0573-1.522-2.3515-3.696-2.3515-2.851 0-5.262 2.2162-5.262 6.6829 0 4.347 2.31 6.69 5.27 6.69zm1.142-2.867c-1.768 0-2.732-1.573-2.732-3.84 0-2.2504.947-3.7984 2.732-3.7984 1.751 0 2.732 1.4803 2.732 3.7984 0 2.317-.998 3.84-2.732 3.84zm13.468 2.91c3.214 0 5.38-1.565 5.887-3.976l-3.333-.22c-.363.99-1.294 1.506-2.495 1.506-1.802 0-2.944-1.193-2.944-3.13v-.008h8.848v-.99c0-4.4155-2.673-6.5979-6.107-6.5979-3.823 0-6.302 2.7153-6.302 6.7249 0 4.119 2.445 6.691 6.446 6.691zm-2.885-8.0615c.076-1.4803 1.201-2.6645 2.8-2.6645 1.565 0 2.648 1.1166 2.656 2.6645zm16.519-5.1852h-2.58v-.8713c0-.8797.356-1.3957 1.413-1.3957.431 0 .871.0931 1.159.1861l.634-2.7068c-.448-.1354-1.438-.3553-2.546-.3553-2.444 0-4.263 1.3788-4.263 4.204v.939h-1.836v2.7068h1.836v10.2859h3.603v-10.2859h2.58zm.534 12.9927h3.604v-12.9927h-3.604zm1.811-14.6676c1.074 0 1.954-.8205 1.954-1.8271 0-.9981-.88-1.8186-1.954-1.8186-1.066 0-1.946.8205-1.946 1.8186 0 1.0066.88 1.8271 1.946 1.8271zm6.615 7.1562c.009-1.6749 1.007-2.6561 2.462-2.6561 1.446 0 2.318.9474 2.309 2.5377v7.6298h3.604v-8.2727c0-3.0283-1.777-4.8892-4.484-4.8892-1.928 0-3.324.9474-3.907 2.4615h-.153v-2.2923h-3.434v12.9927h3.603zm9.547 7.5114h3.604v-12.9927h-3.604zm1.81-14.6676c1.075 0 1.954-.8205 1.954-1.8271 0-.9981-.879-1.8186-1.954-1.8186-1.065 0-1.945.8205-1.945 1.8186 0 1.0066.88 1.8271 1.945 1.8271zm6.616 7.1562c.009-1.6749 1.007-2.6561 2.462-2.6561 1.446 0 2.318.9474 2.309 2.5377v7.6298h3.604v-8.2727c0-3.0283-1.777-4.8892-4.484-4.8892-1.928 0-3.324.9474-3.908 2.4615h-.152v-2.2923h-3.434v12.9927h3.603zm15.401 12.6544c3.713 0 6.352-1.692 6.352-5.016v-13.1197h-3.578v2.1823h-.135c-.482-1.0573-1.54-2.3515-3.714-2.3515-2.85 0-5.261 2.2162-5.261 6.6399 0 4.323 2.343 6.336 5.27 6.336 2.072 0 3.231-1.041 3.705-2.115h.152v2.377c0 1.785-1.142 2.479-2.707 2.479-1.59 0-2.394-.694-2.69-1.481l-3.332.449c.431 2.047 2.436 3.62 5.938 3.62zm.076-8.036c-1.768 0-2.732-1.404-2.732-3.646 0-2.2074.947-3.7554 2.732-3.7554 1.751 0 2.732 1.4803 2.732 3.7554 0 2.293-.998 3.646-2.732 3.646zm11.322 2.893h3.603v-7.3507c0-1.5987 1.168-2.6984 2.758-2.6984.499 0 1.184.0846 1.523.1946v-3.1974c-.322-.0762-.77-.1269-1.134-.1269-1.455 0-2.647.8459-3.121 2.453h-.135v-2.2669h-3.494zm13.396.254c3.214 0 5.379-1.565 5.887-3.976l-3.333-.22c-.364.99-1.294 1.506-2.495 1.506-1.802 0-2.944-1.193-2.944-3.13v-.008h8.848v-.99c0-4.4155-2.673-6.5979-6.107-6.5979-3.824 0-6.302 2.7153-6.302 6.7249 0 4.119 2.445 6.691 6.446 6.691zm-2.885-8.0615c.076-1.4803 1.201-2.6645 2.8-2.6645 1.565 0 2.648 1.1166 2.656 2.6645zm13.237 8.0525c1.92 0 3.164-.837 3.798-2.047h.102v1.802h3.417v-8.7633c0-3.0959-2.622-4.3986-5.515-4.3986-3.113 0-5.16 1.4887-5.659 3.8572l3.333.2707c.245-.8628 1.015-1.4972 2.309-1.4972 1.227 0 1.929.6175 1.929 1.6833v.0507c0 .8375-.889.9474-3.147 1.1674-2.572.2368-4.881 1.0998-4.881 4.0008 0 2.572 1.836 3.874 4.314 3.874zm1.032-2.487c-1.108 0-1.903-.516-1.903-1.505 0-1.015.837-1.514 2.106-1.692.787-.11 2.073-.296 2.504-.584v1.379c0 1.362-1.125 2.402-2.707 2.402zm11.017-15.0816h-3.604v17.3236h3.604zm15.875 8.0358c-.322-2.3938-2.25-3.8741-5.532-3.8741-3.324 0-5.515 1.5395-5.507 4.0433-.008 1.9455 1.218 3.2056 3.756 3.7136l2.25.448c1.133.229 1.649.643 1.666 1.294-.017.77-.854 1.32-2.114 1.32-1.286 0-2.14-.55-2.36-1.607l-3.545.186c.339 2.487 2.453 4.018 5.896 4.018 3.367 0 5.778-1.717 5.786-4.28-.008-1.878-1.235-3.0033-3.756-3.5193l-2.351-.4736c-1.21-.2623-1.658-.6768-1.65-1.3027-.008-.7782.872-1.2857 1.988-1.2857 1.252 0 1.996.6851 2.174 1.5225zm7.809-3.7049h-2.445v-3.1129h-3.604v3.1129h-1.776v2.7068h1.776v6.7669c-.016 2.546 1.718 3.807 4.331 3.697.931-.034 1.591-.22 1.954-.339l-.566-2.681c-.178.034-.559.118-.897.118-.719 0-1.218-.27-1.218-1.269v-6.2929h2.445zm4.384 13.2377c1.921 0 3.164-.837 3.798-2.047h.102v1.802h3.417v-8.7633c0-3.0959-2.622-4.3986-5.515-4.3986-3.113 0-5.16 1.4887-5.659 3.8572l3.333.2707c.245-.8628 1.015-1.4972 2.309-1.4972 1.227 0 1.929.6175 1.929 1.6833v.0507c0 .8375-.888.9474-3.147 1.1674-2.571.2368-4.881 1.0998-4.881 4.0008 0 2.572 1.836 3.874 4.314 3.874zm1.032-2.487c-1.108 0-1.903-.516-1.903-1.505 0-1.015.838-1.514 2.106-1.692.787-.11 2.073-.296 2.504-.584v1.379c0 1.362-1.125 2.402-2.707 2.402zm14.324-10.7507h-2.444v-3.1129h-3.604v3.1129h-1.776v2.7068h1.776v6.7669c-.017 2.546 1.717 3.807 4.331 3.697.931-.034 1.59-.22 1.954-.339l-.567-2.681c-.177.034-.558.118-.896.118-.719 0-1.218-.27-1.218-1.269v-6.2929h2.444zm6.462 13.2467c3.214 0 5.38-1.565 5.887-3.976l-3.333-.22c-.363.99-1.294 1.506-2.495 1.506-1.802 0-2.944-1.193-2.944-3.13v-.008h8.848v-.99c0-4.4155-2.673-6.5979-6.107-6.5979-3.823 0-6.302 2.7153-6.302 6.7249 0 4.119 2.445 6.691 6.446 6.691zm-2.885-8.0615c.077-1.4803 1.202-2.6645 2.8-2.6645 1.565 0 2.648 1.1166 2.656 2.6645zm11.639 8.0275c1.082 0 2.021-.905 2.03-2.03-.009-1.108-.948-2.013-2.03-2.013-1.117 0-2.039.905-2.03 2.013-.009 1.125.913 2.03 2.03 2.03z" fill="#515151"/></g></svg>